<svg width="589" height="617" viewBox="0 0 589 617" fill="none" xmlns="http://www.w3.org/2000/svg">
<mask id="path-1-inside-1_1_34" fill="white">
<path fill-rule="evenodd" clip-rule="evenodd" d="M582.589 361.143C582.589 372.867 582.311 384.592 582.395 396.319C582.421 400.23 581.169 403.559 578.811 406.782C564.739 426.008 550.777 445.318 536.721 464.555C536.124 465.374 534.665 465.063 533.743 465.6C533.568 465.702 532.605 466.487 532.551 466.27C532.299 465.176 533.297 463.863 533.295 462.751C533.261 439.298 533.279 415.847 533.289 392.396C533.292 388.999 532.271 385.223 534.456 382.238C549.2 362.099 564.163 342.116 578.923 321.992C579.223 321.586 580.543 322.611 581.227 322.592C581.429 322.587 581.416 322.375 581.488 322.676C581.663 323.406 582.507 324.076 582.519 324.826C582.565 327.471 582.764 330.126 582.765 332.774C582.769 342.23 583.176 351.687 583.176 361.144L582.589 361.143ZM530.888 376.98C530.275 377.692 529.095 377.676 528.472 377.008C527.448 375.907 525.415 375.607 524.539 374.395C510.287 354.811 496.343 335.01 482.136 315.395C481.029 313.868 480.928 311.762 480.156 310.058C479.743 309.139 479.343 308.227 479.675 307.264C480.156 305.864 480.373 304.21 481.255 302.995C495.693 283.079 509.991 263.063 524.475 243.183C525.357 241.972 526.22 240.446 527.34 239.455C527.824 239.032 529.417 239.37 530.115 239.186C530.76 239.543 531.675 240.05 532.128 240.57C533.615 242.28 534.693 244.326 536.032 246.156C549.175 264.203 562.333 282.24 575.425 300.326C581.488 308.702 580.803 308.046 574.781 316.358C561.461 334.747 549.625 354.212 536.247 372.554C534.917 374.376 532.36 375.263 530.888 376.98ZM527.508 432.754C527.511 444.084 526.753 455.418 526.732 466.751C526.727 469.014 526.561 471.247 526.351 473.496C526.123 475.954 525.228 477.874 522.976 478.826C521.933 479.267 520.712 479.244 519.637 479.595C496.659 487.052 473.685 494.52 450.704 501.96C449.275 502.424 447.62 501.966 446.163 502.327C444.889 502.644 442.245 502.495 442.073 501.271C441.864 499.787 442.855 498.175 442.855 496.683C442.827 472.13 442.855 447.575 442.871 423.02C442.871 421.892 441.817 420.672 441.952 419.552C442.149 417.951 443.553 416.49 444.908 415.722C446.212 414.983 448.019 415.384 449.444 414.918C472.765 407.298 495.965 399.295 519.304 391.73C520.729 391.27 522.076 390.388 523.556 390.111C524.904 389.858 527.232 391.562 527.345 393.062C527.492 394.942 528.057 396.868 528.06 398.751C528.087 410.083 527.508 421.42 527.508 432.754ZM517.873 488.767C517.647 489.476 517.808 490.25 517.431 490.89C516.855 491.867 516.812 493.204 516.147 494.119C503.011 512.182 489.951 530.291 476.961 548.452C474.149 552.387 470.472 555.384 466.019 556.819C442.983 564.243 419.78 571.178 396.711 578.646C396.095 578.436 395.157 578.04 394.553 577.7C394.387 577.607 394.672 576.827 394.829 576.543C395.561 575.228 396.276 573.92 397.156 572.707C410.267 554.628 424.089 537.07 437.223 519.008C437.667 518.396 436.592 516.74 436.999 516.103C439.337 512.432 443.453 511.016 447.623 509.714C455.563 507.227 463.431 504.495 471.353 501.952C486.469 497.1 501.251 491.182 516.4 486.44C516.928 486.275 518.159 487.227 518.753 487.606C518.933 487.72 517.983 488.428 517.873 488.767ZM384.855 578.846C383.567 580.415 382.215 580.204 380.215 579.714C378.019 579.174 375.343 580.307 373.188 579.608C351.968 572.747 331.145 564.659 309.932 557.762C307.777 557.062 305.705 556.202 303.604 555.351C301.795 554.622 300.264 552.348 301.297 550.696C302.499 548.772 304.005 547.006 305.335 545.174C318.436 527.108 332.475 509.72 345.597 491.666C345.82 491.356 345.693 490.802 345.919 490.498C350.372 484.46 351.212 482.582 360.024 485.499C381.915 492.746 403.96 499.519 425.893 506.646C428.031 507.338 430.373 507.948 432.387 508.955C432.919 509.223 433.105 511.052 433.527 511.814C433.128 512.755 432.019 513.623 431.407 514.523C429.061 517.96 427.208 521.739 424.759 525.107C413.193 541.018 401.267 556.662 389.677 572.558C388.117 574.695 386.535 576.803 384.855 578.846ZM368.301 587.263C345.987 594.503 323.628 601.615 301.364 609.004C296.42 610.644 292.357 609.812 287.428 608.148C268.788 601.854 249.439 597.684 230.74 591.556C226.444 590.147 222.603 587.39 218.347 585.862C218.061 585.76 218.112 585.626 218.045 585.287C217.996 585.026 217.324 584.072 217.545 583.924C218.483 583.311 219.693 582.838 220.737 582.499C243.053 575.244 265.724 569.11 288.048 561.891C289.128 561.544 290.033 560.691 291.127 560.402C293.364 559.806 295.651 559.102 297.879 559.774C300.416 560.54 303.017 561.135 305.537 561.951C325.689 568.494 345.963 574.674 366.131 581.171C368.303 581.874 370.468 583.464 372.404 584.567C371.625 586.431 369.665 586.82 368.301 587.263ZM200.235 575.936C186.645 557.306 174.129 537.895 160.613 519.214C159.075 517.088 157.892 514.763 156.559 512.491C156.137 511.772 156.111 509.536 156.919 509.142C158.609 508.319 160.451 507.636 162.224 507.06C184.855 499.694 207.844 493.438 230.505 486.158C232.279 485.587 233.956 484.838 235.813 484.743C236.839 484.69 238.361 484.503 239.136 485.174C240.551 486.398 242.008 487.822 243.117 489.339C257.364 508.892 271.923 528.223 286.105 547.824C287.175 549.307 287.495 551.636 288.277 553.102C287.597 554.05 286.756 554.727 286.171 555.028C284.507 555.884 282.801 556.635 281.021 557.216C258.385 564.568 235.439 570.982 212.844 578.46C205.464 580.904 204.212 581.39 200.235 575.936ZM193.731 577.594C193.417 578.026 192.095 578.512 191.427 578.474C190.697 578.436 189.757 578.431 189.04 578.199L189.159 577.68C167.229 570.599 145.613 562.563 123.691 555.47C122.256 555.004 120.653 555.008 119.357 554.271C117.745 553.354 116.357 552.122 114.996 550.872C113.901 549.864 113.269 548.486 112.381 547.263C99.2587 529.231 85.5828 511.603 72.4934 493.548C71.6121 492.332 71.2174 490.794 70.6467 489.411C70.4561 488.948 70.9747 488.307 71.3187 487.727C71.4627 487.482 71.6561 488.244 71.9708 488.29C73.0788 488.451 74.6134 486.776 75.6734 487.12C96.8787 493.992 117.672 502.112 138.865 509.004C140.303 509.471 141.732 509.898 143.141 510.443C145.659 511.412 148.533 512.06 150.161 514.25C151.064 515.46 151.732 516.855 152.621 518.076C165.729 536.118 177.928 554.82 191.021 572.875C191.681 573.783 192.656 574.41 193.092 575.435C193.351 576.042 194.063 577.135 193.731 577.594ZM62.0481 475.204C61.6227 473.386 61.8094 471.308 61.8081 469.432C61.7721 445.231 62.8988 421.034 62.9308 396.832C62.9334 395.34 62.8121 393.892 63.0067 392.402C63.1174 391.568 64.4334 390.124 65.3867 390.306C67.2387 390.659 69.2427 390.711 71.0254 391.286C92.5961 398.262 114.287 404.876 135.833 411.934C139.033 412.983 142.524 414.308 145.175 417.055C146.741 420.438 145.544 424.52 145.553 428.267C145.603 449.442 145.445 470.616 145.423 491.791C145.42 494.434 145.977 497.094 145.805 499.731C145.759 500.448 145.089 501.096 144.673 501.679C144.273 502.235 143.728 502.682 143.076 502.879C142.404 503.082 141.923 502.214 141.229 502.01C137.608 500.948 133.436 501.651 129.844 500.483C110.795 494.299 92.1467 486.895 73.1187 480.647C70.2601 479.711 67.5134 478.575 64.8161 477.258C63.9468 476.835 62.2814 476.196 62.0481 475.204ZM58.2227 377.344C57.0454 376.448 55.9641 375.428 55.0721 374.243C51.4374 369.4 48.5667 364.006 45.0067 359.11C34.7734 345.027 23.0148 332.055 12.8041 317.955C11.2521 315.815 10.8241 312.886 9.39474 310.659C8.52808 309.303 8.47209 308.25 9.28142 306.844C10.2241 305.211 10.2827 302.97 11.3894 301.443C25.1681 282.454 39.2427 263.678 53.0561 244.712C54.1641 243.191 56.2894 242.487 57.5241 241.06C58.5854 239.831 59.7014 239.454 60.7107 240.552C61.7281 241.663 63.3681 242.279 64.2561 243.494C78.5081 263.071 92.9068 282.55 107.12 302.156C108.007 303.376 109.185 304.59 109.865 305.935C110.193 306.579 109.732 307.839 109.88 308.575C109.735 309.312 109.229 310.092 108.876 310.708C107.752 312.671 106.411 314.482 105.085 316.311C91.3188 335.31 77.4148 354.207 63.5908 373.164C62.4881 374.674 61.6827 376.484 60.2894 377.73C59.9001 378.08 58.6841 377.696 58.2227 377.344ZM56.8587 427.374C56.8587 439.491 56.6601 451.61 56.5881 463.727C56.5814 464.732 55.6001 465.683 55.1094 466.615C54.7121 467.366 53.1467 466.328 51.9281 464.651C38.3494 445.967 25.5227 426.727 11.8427 408.118C9.01074 404.266 5.89473 400.835 5.90939 396.114C5.94539 385.89 7.17206 375.67 7.16806 365.444C7.16006 354.086 7.16273 342.726 7.21473 331.367C7.22406 329.11 6.27074 326.738 6.59474 324.507C6.6734 323.967 8.12939 323.016 8.71872 322.894C9.32405 322.767 9.78008 324.011 10.2747 324.443C11.1201 325.175 12.0387 325.735 12.7027 326.654C25.8401 344.722 39.5108 362.398 52.7068 380.426C55.5041 384.25 57.1787 388.506 57.0947 393.303C56.9067 404.66 57.4467 416.014 57.4467 427.374H56.8587ZM7.17209 225.195C7.17209 223.68 7.2694 222.155 7.23207 220.642C7.12673 216.3 7.53606 212.18 10.1107 208.67C23.5427 190.354 37.1254 172.15 50.5108 153.799C51.3828 152.607 53.3401 152.359 54.4121 151.324C54.6214 151.122 54.5227 150.872 54.8467 150.944C55.1961 151.022 56.2014 150.902 56.2334 151.139C56.4934 153 57.0121 154.923 57.0214 156.791C57.0734 167.771 57.4547 178.754 57.4547 189.732H56.8827C56.8827 201.092 56.1827 212.454 56.3987 223.808C56.4894 228.612 55.0068 232.455 52.2068 236.272C43.4748 248.176 34.7867 260.115 26.0654 272.026C20.7081 279.339 15.7587 286.958 10.2361 294.148C9.95872 294.51 8.72006 293.982 8.02406 293.891C7.78272 293.859 7.69075 293.514 7.58542 293.184C7.35208 292.472 7.95874 291.746 7.91741 291.01C7.81074 289.12 5.88941 287.286 5.88941 285.392C5.88141 265.328 7.16809 245.263 7.17209 225.195ZM61.6828 183.516C61.6828 172.936 62.4254 162.355 62.4708 151.774C62.4841 148.756 62.7774 145.77 62.9881 142.759C63.0974 141.16 63.4441 139.656 64.8961 139C66.9588 138.067 69.2147 137.602 71.3654 136.904C93.6321 129.675 115.908 122.468 138.196 115.3C139.615 114.844 141.245 115.531 142.721 115.276C143.419 115.155 145.824 115.283 145.932 116.007C146.215 117.858 145.363 119.843 145.391 121.703C145.492 128.126 145.437 134.544 145.437 140.968C145.437 157.975 146.66 174.984 146.579 191.99C146.539 200.448 145.521 201.426 138.111 203.863C115.153 211.412 91.8201 217.804 68.8281 225.243C67.4281 225.692 66.1081 226.171 64.6268 226.159C64.0374 226.154 62.6801 225.928 62.5614 225.412C62.1321 223.61 61.5814 221.648 61.5734 219.8C61.5068 207.706 61.1281 195.612 61.1281 183.518L61.6828 183.516ZM70.0321 128.439C70.6934 127.094 71.6694 125.978 72.5534 124.756C85.2294 107.283 97.3601 89.4203 110.055 71.9603C111.168 70.4296 112.755 69.2296 113.811 67.6576C115.588 65.011 118.044 63.575 120.923 62.4816C121.983 62.0776 123.335 62.5896 124.415 62.2376C146.001 55.1976 167.003 46.3563 188.595 39.331C189.659 38.983 191.108 39.995 192.215 39.811C192.511 39.7616 192.555 39.7203 192.641 39.9549C192.877 40.5883 194.3 41.5483 194.071 42.067C193.461 43.4323 192.308 44.6603 191.425 45.8749C178.535 63.6563 164.705 80.759 151.792 98.523C151.344 99.1363 151.177 99.987 150.783 100.631C148.497 104.376 145.536 107.174 141.389 108.447C136.327 110 131.361 111.854 126.321 113.492C111.208 118.404 96.2294 123.714 81.1174 128.632L80.9747 128.223C77.7121 129.156 74.1694 129.138 70.8961 130.028C70.6121 130.107 70.2667 130.411 70.1881 130.198C69.9507 129.576 69.7907 128.926 70.0321 128.439ZM203.616 39.1243C205.189 37.1603 206.796 36.627 209.201 37.2296C211.764 37.875 214.631 37.5216 217.147 38.3376C238.361 45.2176 259.468 52.4416 280.673 59.3576C282.469 59.9443 283.819 61.731 285.568 62.4416C287.004 63.0216 287.783 64.0843 287.048 65.2816C285.859 67.207 285.303 69.5643 283.979 71.3936C270.663 89.779 257.483 108.262 244.125 126.615C242.792 128.446 241.649 130.586 240.108 132.234C239.384 133.004 237.548 133.126 236.324 133.838C234.605 133.43 232.808 132.363 231.037 131.795C220.597 128.455 210.216 124.928 199.791 121.535C188.284 117.791 176.568 114.69 165.072 110.919C162.917 110.214 160.931 109.039 158.821 108.214C156.111 107.158 155.413 105.447 156.793 103.247C157.596 101.966 159.076 101.19 159.964 99.9683C173.743 80.9856 186 60.8976 199.797 41.9296C200.685 40.707 202.671 40.3056 203.616 39.1243ZM218.069 30.803C219.035 30.243 220.037 29.4443 221.092 29.0989C243.001 21.9349 264.787 14.391 286.719 7.29897C289.212 6.49364 292.145 6.57762 294.711 5.96828C297.384 6.68962 300.011 7.51229 302.513 8.31362C317.629 13.1483 332.601 18.423 347.693 23.327C354.876 25.6643 362.033 28.0763 369.168 30.5589C369.715 30.7496 369.321 31.5043 369.319 32.1043C369.317 32.6229 369.943 34.199 369.371 34.4083C364.768 36.1016 359.725 36.5563 355.057 38.0723C336.729 44.0216 318.344 49.799 300.063 55.883C295.864 57.2776 292.021 58.267 287.879 56.907C265.984 49.7256 244.131 42.4096 222.204 35.3096C220.787 34.851 219.959 33.0203 218.633 32.3069C218.384 32.1709 218.123 32.419 218.131 32.127C218.139 31.7883 217.801 30.9576 218.069 30.803ZM378.567 37.4443C381.895 36.4256 384.904 36.6616 386.892 39.4163C387.775 40.6416 388.437 42.0296 389.327 43.2523C403.115 62.2216 416.004 81.839 429.753 100.838C430.843 102.344 431.993 103.748 432.713 105.47C432.911 105.943 432.945 107.308 432.456 107.591C430.841 108.532 429.123 109.616 427.351 110.196C404.355 117.702 381.467 125.551 358.451 132.991C356.673 133.566 354.492 133.402 352.761 133.838C351.547 133.278 350.597 132.318 349.795 131.61C348.675 130.624 347.945 129.327 347.057 128.107C332.819 108.528 318.035 89.347 303.828 69.747C302.948 68.5296 302.608 66.9456 301.857 65.6376C301.207 64.5003 301.859 62.5896 303.157 62.0683C305.605 61.0816 308.313 60.8976 310.819 60.0736C324.819 55.463 338.243 49.083 352.264 44.527C359.811 42.071 367.779 40.907 375.337 38.483C376.416 38.1376 377.483 37.7736 378.567 37.4443ZM395.329 40.035C395.535 39.739 396.127 40.299 396.387 40.3416C397.859 40.5883 399.371 40.403 400.787 40.8603C422.381 47.8243 444.172 54.1736 465.784 61.0869C470.28 62.5256 474.136 64.9483 476.936 68.8483C490.623 87.9003 504.821 106.58 518.577 125.583C519.201 126.446 519.005 128.308 519.383 129.303C518.672 129.792 517.559 130.692 517.117 130.595C514.543 130.024 512.1 128.92 509.592 128.1C490.183 121.755 470.784 115.378 451.384 109.01C449.945 108.536 448.744 107.302 447.3 106.847C443.568 105.675 439.653 104.994 437.344 101.774C429.409 90.699 422.396 78.963 414.392 67.943C408.832 60.287 403.268 52.639 397.761 44.9483C396.909 43.759 395.337 42.9016 394.729 41.5523C394.612 41.291 395.136 40.3096 395.329 40.035ZM475.02 301.439C473.445 303.43 471.649 304.38 469.264 304.019C468.516 303.907 467.852 303.395 467.14 303.166C460.672 301.068 454.221 298.892 447.731 296.856C443.877 295.651 443.425 293.231 443.449 289.386C443.493 282.199 441.368 274.976 441.564 267.796C441.708 262.643 441.572 257.932 438.412 253.854C434.939 249.372 431.731 244.703 428.417 240.1C427.311 238.567 425.232 237.667 424.239 236.059C422.965 233.995 422.832 231.083 424.263 229.052C429.051 222.259 434.877 216.218 439.841 209.548C441.068 207.902 442.292 207.27 444.237 207.884C452.889 210.607 461.737 212.72 470.365 215.51C485.469 220.395 500.644 225.075 515.725 230.028C517.849 230.726 520.175 231.444 522.151 232.508C522.669 232.791 522.768 234.618 523.081 235.279C522.877 235.996 521.892 236.539 521.515 237.151C520.332 239.082 519.489 241.22 518.16 243.054C505.276 260.807 492.201 278.422 479.284 296.156C477.952 297.987 476.431 299.664 475.02 301.439ZM441.765 307.136C441.936 303.763 444.648 301.824 447.576 302.698C450.784 303.651 453.603 305.8 456.769 306.876C457.463 307.111 458.172 307.135 458.831 307.478C459.629 307.899 460.432 308.378 460.113 309.206C459.991 309.522 459.653 310.372 459.389 310.474C456.288 311.682 453.3 313.171 450.204 314.395C443.956 316.864 441.837 313.491 441.985 308.275C442 307.903 441.745 307.508 441.765 307.136ZM435.139 402.436C431.597 397.543 428.201 392.558 424.819 387.55C423.707 385.904 423.161 383.991 424.268 382.31C426.969 378.215 430.159 374.447 432.999 370.442C444.235 354.586 442.309 359.727 442.564 341.344C442.631 336.432 443.488 331.534 443.564 326.62C443.605 324.164 443.297 321.159 445.6 320.372C453.812 317.567 462.505 316.21 470.792 313.634C472.352 313.15 473.305 313.836 474.376 314.97C475.412 316.06 477.229 316.548 478.116 317.77C492.344 337.328 506.293 357.094 520.483 376.683C521.572 378.188 521.476 380.391 522.235 382.09C522.456 382.584 522.619 383.155 522.165 383.467C520.947 384.299 519.888 385.654 518.483 386.112C504.489 390.706 490.535 395.432 476.524 399.976C466.105 403.355 455.811 407.127 445.38 410.464C444.335 410.8 442.8 410.31 441.887 410.454C441.024 409.978 440.379 409.255 439.921 408.727C438.199 406.727 436.687 404.572 435.139 402.436ZM354.507 448.379C354.521 446.796 354.228 444.823 355.64 444.124C356.988 443.458 358.924 444.11 360.349 443.627C366.087 441.692 371.708 439.416 377.576 438.026C383.963 436.51 387.58 431.978 391.065 426.718C393.991 422.299 397.504 418.247 400.653 413.979C401.997 412.158 404.329 411.131 405.817 409.418C406.889 408.18 407.788 407.452 409.251 407.915C417.184 410.411 425.313 412.324 433.188 415.008C435.569 415.823 437.132 418.156 437.199 420.647C437.283 423.676 437.772 426.722 437.777 429.751C437.796 439.98 437.22 450.21 437.22 460.439C437.217 471.047 436.824 481.654 436.784 492.262C436.773 494.906 436.023 497.514 435.841 500.154C435.701 502.171 434.329 503.622 432.527 503.112C429.253 502.184 426.053 501.031 422.817 499.982C406.971 494.842 391.183 489.532 375.347 484.367C370.669 482.842 365.76 482.01 361.104 480.424C359.321 479.815 357.745 478.652 356.056 477.816C354.629 477.108 353.688 475.995 353.668 474.456C353.565 465.759 354.42 457.075 354.507 448.379ZM352.42 413.939C352.561 407.13 352.895 400.315 353.092 393.51C353.151 391.487 355.133 390.555 357.296 391.018C358.772 391.338 360.251 391.595 361.683 392.062C367.435 393.943 372.892 396.708 378.637 398.607C383.665 400.268 389.307 400.074 394.329 401.747C395.391 402.103 395.939 403.855 396.96 404.328C398.319 404.956 398.705 406.226 397.78 407.519C392.951 414.286 389.08 421.759 384.121 428.427C383.265 429.579 381.405 430.503 380.047 430.966C372.889 433.4 365.321 434.575 358.116 436.868C357.769 436.978 357.548 437.282 357.176 437.331C355.817 437.515 353.48 436.707 353.283 435.506C353.037 434.02 352.5 432.471 352.48 430.975C352.409 425.298 352.043 419.647 352.043 413.971L352.42 413.939ZM306.324 320.435C305.901 319.852 305.447 319.015 305.248 318.306C305.165 318.002 305.009 316.83 305.193 316.564C305.389 316.28 306.541 316.271 306.847 316.062C307.596 316.115 308.525 316.252 309.22 316.476C331.487 323.696 353.592 331.427 375.892 338.554C380.423 340.003 383.837 342.227 386.584 346.163C392.205 354.22 397.428 362.574 403.191 370.531C406.069 374.511 410.448 377.422 413.263 381.447C414.721 383.53 413.683 385.935 412.203 387.991C410.004 391.055 407.759 394.058 405.407 397.006C404.424 398.244 403.196 399.587 401.616 399.439C401.244 399.404 400.829 398.931 400.471 398.814C385.74 394.047 371.367 388.171 356.619 383.456C353.592 382.491 351.335 381.282 349.499 378.746C335.307 359.164 320.504 340.024 306.324 320.435ZM346.896 433.102C346.889 434.976 346.721 436.783 346.297 438.598C346.061 439.611 346.173 441.506 345.315 442.038C341.092 444.64 336.045 445.66 331.173 446.343C330.527 446.435 330.093 445.158 329.617 444.679C328.292 443.354 326.763 442.278 325.656 440.764C317.856 430.094 309.628 419.742 301.688 409.176C298.809 405.342 297.123 401.04 297.159 396.347C297.177 394.083 296.713 391.822 296.711 389.556C296.705 380.114 297.276 370.67 297.276 361.23C297.277 351.408 298.021 341.591 298.064 331.772C298.075 329.516 298.363 327.308 298.651 325.072C298.72 324.53 299.016 323.534 299.592 323.414C300.184 323.291 300.949 324.018 301.448 324.45C302.291 325.184 302.975 326.058 303.636 326.97C316.744 344.987 329.092 363.562 342.296 381.507C345.365 385.682 348.324 389.472 348.261 394.592C348.111 407.432 346.947 420.263 346.896 433.102ZM244.032 476.936C248.575 469.507 253.435 462.116 259.173 455.563C259.835 454.808 261.865 454.835 262.947 454.344C264.459 454.69 265.947 455.47 267.373 455.919C274.585 458.196 281.736 460.655 288.9 463.08C292.665 464.354 296.489 464.395 300.24 463.104C307.035 460.762 313.695 458.014 320.555 455.856C321.985 455.407 323.563 455.471 325.045 455.238C326.619 454.988 328.063 455.334 328.964 456.544C334.171 463.51 338.568 471.054 343.639 478.115C344.607 479.463 345.963 480.802 345.188 482.188C344.455 483.507 342.544 484.118 341.657 485.342C327.201 505.247 312.723 525.139 298.216 545.008C297.345 546.199 296.968 548.067 295.769 548.94C295.292 549.288 293.368 549.028 293.025 548.678C291.183 546.8 290.233 544.16 288.681 542.036C277.515 526.758 266.055 511.696 254.957 496.366C251.631 491.771 247.783 487.535 244.58 482.852C243.448 481.202 242.983 478.647 244.032 476.936ZM241.401 461.167C241.401 457.638 241.456 456.492 241.483 455.362C241.644 448.419 242.857 448.458 249.892 450.995C250.585 451.244 251.339 451.223 252.001 451.556C252.849 451.986 253.891 453.58 253.435 454.419C250.917 459.059 248.185 463.783 244.053 467.196C243.885 467.336 241.685 466.796 241.659 466.646C241.228 464.098 241.432 461.372 241.401 461.167ZM243.852 382.839C258.589 362.696 274.175 343.174 288.932 323.044C289.235 322.63 289.641 322.543 290.323 322.51C290.496 322.502 291.207 322.659 291.233 322.959C291.377 324.459 291.723 326.002 291.728 327.504C291.748 338.854 292.148 350.207 292.148 361.559L291.531 361.555C291.531 373.66 290.843 385.763 290.887 397.87C290.899 401.007 290.181 403.684 288.32 406.236C279.399 418.456 269.793 430.187 260.947 442.458C258.84 445.386 256.84 447.462 253.603 446.122C253.256 445.979 253.325 444.724 252.964 444.614C241.553 441.119 242.316 441.918 242.292 430.226C242.269 417.363 241.125 404.502 241.144 391.638C241.149 388.578 241.936 385.458 243.852 382.839ZM231.652 384.882C217.228 389.459 202.917 394.39 188.521 399.059C186.096 399.847 183.036 399.294 181.499 397.264C178.776 393.664 175.909 389.807 174.199 384.995C175.439 382.914 177.229 380.667 178.743 378.562C186.249 368.106 193.961 357.791 201.341 347.247C204.541 342.68 208.605 340.671 213.959 339.008C230.583 333.856 246.515 326.531 263.079 321.192C268.831 319.338 274.993 318.798 280.792 317.107C281.267 316.967 281.627 317.566 282.155 317.998C282.355 318.164 283.299 318.458 283.249 318.826C283.2 319.191 282.673 319.655 282.484 319.972C281.909 320.948 280.417 321.302 279.757 322.215C266.432 340.611 253.42 359.238 240.125 377.658C237.833 380.834 235.464 383.671 231.652 384.882ZM235.167 435.8C234.835 437.02 233.852 437.351 232.741 437.474C231.641 437.599 230.773 436.783 229.729 436.451C223.247 434.382 216.165 434.079 209.753 431.798C208.032 431.184 206.732 429.182 205.677 427.798C200.643 421.182 195.884 414.378 191.056 407.603C190.188 406.388 190.117 403.987 191.401 403.332C192.404 402.82 193.588 402.504 194.649 402.152C206.139 398.352 217.977 395.638 229.496 391.926C230.897 391.475 232.215 390.939 233.695 390.946C234.28 390.948 235.477 391.143 235.741 391.73C236.191 392.722 236.715 394.03 236.725 395.12C236.789 401.552 237.168 407.991 237.168 414.423L236.62 414.426C236.62 420.103 236.451 425.783 236.364 431.459C236.34 432.935 235.561 434.367 235.167 435.8ZM151.089 460.015C151.092 449.438 152.289 438.862 152.303 428.286C152.308 426.02 151.585 423.755 151.621 421.491C151.683 418.004 153.805 416.462 156.943 415.339C159.071 414.579 161.049 413.388 163.207 412.71C168.607 411.012 174.063 409.528 179.489 407.934C181.04 407.475 182.16 408.076 183.187 409.204C184.96 411.154 187.071 412.835 188.637 414.96C192.449 420.126 195.863 425.584 199.625 430.787C201.692 433.643 204.516 435.574 207.896 436.634C214.376 438.672 220.545 441.65 226.991 443.788C228.78 444.383 231.283 443.172 232.981 443.964C234.749 444.786 235.428 446.928 235.453 448.994C235.561 457.294 235.561 465.588 235.469 473.89C235.449 475.906 234.843 478.004 233.125 478.919C231.801 479.623 230.113 479.792 228.677 480.26C206.065 487.61 183.105 493.88 160.483 501.198C158.701 501.776 157.019 502.586 155.192 503.027C154.117 503.286 151.727 502.042 151.613 500.807C151.407 498.558 150.975 496.267 150.959 494.011C150.907 485.323 150.524 476.632 150.524 467.946C150.524 465.302 151.089 462.658 151.089 460.015ZM113.117 316.619C115.217 313.806 117.563 313.416 120.723 314.348C126.529 316.06 132.647 316.774 138.42 318.6C139.861 319.059 141.228 319.95 142.595 320.592C144.423 321.452 144.681 323.343 144.847 325.359C145.061 327.998 145.539 330.595 145.565 333.244C145.613 338.547 146.477 343.87 146.284 349.164C146.093 354.364 147.848 358.376 150.949 362.466C155.065 367.899 159.319 373.263 163.28 378.816C164.583 380.642 165.761 382.946 165.9 385.342C165.812 385.738 164.929 385.859 164.728 386.143C159.683 393.236 155.029 400.604 149.909 407.64C148.463 409.628 146.637 410.227 144.129 409.388C142.693 408.907 141.271 408.386 139.829 407.918C117.863 400.796 95.6761 394.347 73.7294 387.17C71.2401 386.358 69.0214 384.792 66.6761 383.616C66.2241 383.392 65.9988 382.518 66.1268 381.924C66.3574 380.85 67.4587 380.312 68.1054 379.422C82.7774 359.178 95.9574 337.854 110.668 317.636C111.112 317.026 112.667 317.226 113.117 316.619ZM145.876 312.766C145.395 313.602 143.468 314.704 142.747 314.578C137.931 313.751 133.644 311.483 129.351 309.015C129.104 308.872 128.912 309.031 128.88 308.696C128.851 308.378 128.34 307.647 128.552 307.466C129.113 306.988 129.779 306.227 130.459 305.986C133.292 304.97 136.047 303.58 138.92 302.698C144.003 301.143 146.256 303.399 146.233 309.606C146.132 310.242 146.399 311.852 145.876 312.766ZM150.688 210.018C151.868 211.499 152.72 213.227 153.779 214.791C168.745 236.846 169.183 227.42 153.836 249.458C145.192 261.868 144.951 259.378 144.847 274.56C144.807 280.236 146.608 285.947 146.451 291.618C146.379 294.156 143.913 295.462 141.605 296.243C134.441 298.667 127.265 301.022 120.032 303.224C117.335 304.044 114.349 304.282 112.515 301.84C111.38 300.328 110.439 298.662 109.324 297.132C95.9534 278.772 83.5014 259.746 70.1561 241.368C69.0494 239.84 67.7254 238.502 66.7307 236.894C65.6681 235.168 65.9814 232.874 67.9147 232.103C69.3214 231.542 70.7001 230.802 72.1374 230.335C94.4441 223.086 116.631 215.456 138.944 208.232C141.095 207.538 143.563 207.486 145.829 206.827C146.871 207.258 147.737 208.434 148.685 208.978C149.315 209.343 150.221 209.432 150.688 210.018ZM235.133 163.486C235.079 170.916 235.805 172.512 228.86 174.879C222.775 176.955 216.332 177.944 210.139 179.648C204.704 181.144 200.489 184.351 197.42 188.99C194.504 193.404 192.193 198.268 189.055 202.538C187.711 204.367 186.059 205.991 184.637 207.763C183.105 209.667 181.196 209.731 178.651 208.89C171.827 206.63 164.831 204.906 158.04 202.559C152.881 200.774 151.323 199.446 151.193 193.531C151.092 188.99 150.939 184.439 150.936 179.894C150.931 172.324 150.524 164.751 150.524 157.179H151.1C151.1 145.823 152.071 134.468 152.139 123.112C152.155 120.87 152.067 118.635 152.375 116.403C152.545 115.17 154.444 114.211 155.728 114.446C156.837 114.652 157.887 114.922 158.951 115.266C181.628 122.599 204.511 129.296 227.175 136.672C228.971 137.256 230.572 138.387 232.315 139.126C234.613 140.103 235.775 141.714 235.819 144.194C235.936 150.627 235.18 157.052 235.133 163.486ZM236.38 201.399C236.38 208.559 235.779 215.699 235.691 222.855C235.66 225.244 233.548 226.639 231.16 226.159C230.787 226.082 230.68 225.292 230.328 225.178C217.783 221.132 204.657 218.88 192.127 214.792C191.436 214.568 191.328 213.047 190.881 212.495C190.468 211.978 190.449 211.396 190.332 210.707C190.277 210.386 189.444 209.622 189.652 209.328C194.248 202.891 199.112 196.634 203.791 190.255C204.663 189.067 206.365 188.686 207.667 188.151C216.021 184.715 224.357 181.484 233.223 179.635C234.12 179.448 236.028 180.207 236.125 181.038C236.301 182.522 236.765 184.051 236.78 185.54C236.835 190.819 237.209 196.155 237.209 201.431C237.203 201.563 236.387 201.268 236.38 201.399ZM196.529 331.926C183.985 327.688 171.128 324.394 158.537 320.3C157.459 319.95 156.22 319.78 155.207 319.283C153.025 318.218 150.925 316.04 150.732 313.552C150.617 312.044 151.135 310.448 151.152 310.772C151.152 307.8 152.028 306.68 152.065 305.547C152.228 300.967 152.795 299.18 156.873 297.719C157.229 297.591 157.747 297.926 158.104 297.807C171.048 293.564 184.007 289.38 196.912 285.032C201.768 283.396 206.037 284.188 210.909 285.782C232.12 292.72 253.968 297.707 275.177 304.644C276.881 305.199 277.849 307.635 279.385 308.644C279.525 308.739 279.48 308.81 279.295 308.899C276.943 310.043 275.055 312.423 272.584 313.242C260.381 317.29 248.017 320.884 235.784 324.851C227.865 327.419 219.543 328.796 211.688 331.548C206.439 333.384 201.787 333.702 196.529 331.926ZM168.467 224.872C165.532 221.035 162.432 217.3 159.591 213.392C159.223 212.884 158.711 210.984 158.999 210.474C159.251 210.024 161.201 210.052 162.053 209.766C166.151 211.135 170.436 212.604 174.665 214.075C176.401 214.678 176.34 217.018 175.216 218.65C173.951 220.478 172.932 222.448 171.535 224.184C170.868 225.015 169.019 225.592 168.467 224.872ZM168.607 241.462C169.84 239.822 171.933 238.708 173.276 240.267C174.017 241.126 173.772 242.803 174.46 243.706C175.381 244.903 176.229 246.143 177.117 247.37C182.892 255.331 189.652 262.587 195.365 270.592C196.444 272.104 197.019 274.11 197.727 275.835C197.939 276.346 196.567 276.972 196.153 277.508C195.72 278.072 195.505 278.702 194.819 278.927C181.905 283.198 169.207 288.126 156.269 292.327C154.571 292.879 151.497 290.932 151.372 289.16C151.103 285.392 150.549 281.566 150.353 277.794C150.356 277.676 151.151 277.887 151.159 277.767C151.159 274.363 151.832 270.99 151.812 267.583C151.799 264.451 152.632 261.692 154.444 259.187C158.876 253.06 164.063 247.506 168.607 241.462ZM176.804 399.506C176.993 400.05 176.725 401.428 176.337 401.967C175.92 402.55 175.125 403.656 174.453 403.914C169.873 405.671 164.975 406.883 160.045 407.416C159.812 407.586 159.431 406.942 159.171 406.999C159.045 407.027 158.093 406.932 158.123 406.818C158.191 406.556 158.797 406.372 158.972 406.142C161.312 400.934 165.419 397.08 169.591 393.202C169.983 392.838 170.451 392.531 170.931 392.846C173.531 394.543 175.791 396.61 176.804 399.506ZM170.931 376.888C170.293 377.47 169.244 377.687 168.632 376.868C163.683 370.239 158.055 364.095 153.336 357.304C152.121 355.556 151.332 352.947 151.127 350.764C150.812 347.403 150.631 343.934 150.631 340.543L151.213 340.547C151.213 337.156 151.779 333.771 151.899 330.384C152.035 326.514 154.036 324.948 157.5 325.834C158.228 326.02 158.685 327.014 159.399 327.247C170.501 330.843 182.193 332.627 193.281 336.276C194.688 336.74 195.54 338.624 196.777 339.447C197.264 339.774 197.341 340.331 197.339 340.987C197.332 341.68 198.045 342.888 197.623 343.467C189.665 354.448 181.399 365.203 173.392 376.146C172.959 376.738 171.485 376.383 170.931 376.888ZM241.451 239.408C254.871 258.143 267.451 277.479 280.972 296.138C281.623 297.032 281.981 298.031 282.428 299.058C282.561 299.367 283.404 300.396 283.216 300.528C282.652 300.926 281.449 301.247 280.873 301.154C279.4 300.916 278.259 299.318 276.827 298.856C263.891 294.694 250.82 290.944 237.896 286.752C229.633 284.074 221.223 281.884 212.907 279.392C208.359 278.031 204.453 275.708 201.673 271.791C193.585 260.392 184.933 249.404 176.749 238.072C175.657 236.563 175.215 234.206 174.192 232.462C176.22 227.367 179.633 223.079 183.456 219.402C184.157 218.726 185.689 218.927 186.767 218.9C187.865 218.87 188.936 219.179 190.004 219.524C203.295 223.82 216.311 228.975 229.608 233.259C234.037 234.684 238.639 235.478 241.451 239.408ZM344.801 140.536C339.931 147.282 335.425 154.32 330.435 160.975C329.612 162.071 327.3 162.448 326.295 163.107C324.736 162.762 323.592 162.051 322.523 161.714C315.309 159.44 308.144 157.027 300.985 154.588C296.477 153.055 291.901 152.998 287.415 154.546C280.264 157.008 273.236 159.839 266.052 162.207C263.252 163.128 260.896 162.592 259.067 160.083C254.168 153.358 249.284 146.624 244.48 139.831C243.571 138.546 244.288 137.571 245.089 136.166C246.019 134.526 245.468 131.93 246.575 130.4C260.792 110.792 276.064 91.9456 290.319 72.3603C291.199 71.151 292.263 70.1349 293.276 69.0243C293.9 68.3363 295.879 67.6576 296.537 68.4003C297.289 69.2483 297.864 70.311 298.528 71.223C313.228 91.4216 327.004 112.284 341.676 132.504C342.561 133.726 343.8 134.655 344.351 136.035C344.732 137 345.241 138.095 345.216 139.192C345.209 139.532 345.021 140.232 344.801 140.536ZM347.964 159.059C347.775 161.643 347.904 163.926 347.699 166.136C347.58 167.416 344.861 169.064 343.617 168.711C341.491 168.107 339.731 166.39 337.653 165.634C336.413 165.182 335.607 163.763 336.152 162.72C338.403 158.415 340.735 154.156 344.071 150.65C344.396 150.302 345.764 150.182 346.421 150.286C346.672 150.326 347.921 151.286 347.951 151.583C348.185 154.156 347.796 156.83 347.964 159.059ZM292.136 254.643L291.744 254.663C291.58 267.495 290.663 280.32 290.42 293.151C290.411 293.646 289.609 293.81 289.044 294.19C288.847 294.32 288.424 294.67 288.155 294.46C287.569 294.007 287.312 293.187 286.84 292.618C286.12 291.748 285.475 290.832 284.812 289.916C272.593 273.115 261.056 255.822 248.843 239.015C247.515 237.183 244.72 236.395 243.42 234.543C242.084 232.642 242.409 230.066 242.407 227.73C242.399 211.867 242.425 196.007 242.459 180.144C242.464 177.647 242.953 175.11 245.327 174.247C248.867 172.959 252.571 172.043 256.183 170.974C257.709 170.522 258.735 172.12 259.831 173.244C260.88 174.323 262.113 175.171 263.001 176.386C271.016 187.368 279.496 198.007 287.631 208.9C290.511 212.755 291.827 217.107 291.767 221.806C291.636 232.758 292.136 243.691 292.136 254.643ZM295.677 410.33C296.341 410.606 297.332 411.146 297.756 411.732C305.76 422.755 314.071 433.56 322.012 444.624C322.428 445.199 322.117 446.627 322.347 447.334C322.036 447.974 321.256 448.558 320.793 449.054C320.297 449.586 319.415 449.164 318.719 449.394C311.183 451.899 304.235 456.191 296.665 458.584C295.627 458.914 294.207 457.782 293.192 457.46C284.92 454.806 276.693 452.034 268.465 449.243C266.933 448.724 265.656 446.942 266.48 445.584C267.067 444.615 267.933 443.782 268.595 442.866C275.477 433.366 283.261 424.524 290.207 415.07C291.308 413.57 292.272 412.026 293.677 410.804C294.059 410.472 295.049 410.07 295.677 410.33ZM294.735 207.448C294.12 207.3 294.244 206.094 293.991 205.878C293.136 205.144 290.855 205.724 290.201 204.83C282.595 194.45 276.068 183.287 268.511 172.879C268.072 172.272 267.829 171.595 267.459 170.936C266.72 169.63 266.728 167.264 268.224 166.752C275.724 164.172 283.327 161.83 290.912 159.524C292.967 158.9 295.42 159.988 297.477 160.615C305.059 162.931 312.643 165.198 320.143 167.78C321.603 168.282 322.732 170.176 321.98 171.408C321.188 172.698 320.597 174.168 319.717 175.39C312.392 185.503 305.392 195.858 297.985 205.911C297.381 206.73 295.504 206.954 294.735 207.448ZM343.98 235.799C330.16 254.73 315.485 273.035 301.673 291.971C301.247 292.559 301.12 293.282 300.461 293.49C299.899 293.666 298.424 293.892 298.315 293.576C297.84 292.179 297.197 290.563 297.188 289.102C297.121 277.759 296.74 266.414 296.74 255.071H297.295C297.295 244.107 297.628 233.144 297.471 222.18C297.392 216.624 299.451 212.094 302.808 207.647C310.324 197.695 317.488 187.47 324.851 177.398C326.18 175.578 328.169 174.443 329.811 172.912C330.521 172.248 331.371 170.299 332.356 170.472C334.568 170.862 336.451 172.846 338.595 173.56C346.548 176.21 346.841 176.574 346.889 185.383C346.961 198.236 348.025 211.086 348.093 223.94C348.117 228.27 346.532 232.3 343.98 235.799ZM355.708 232.7C370.437 227.859 385.271 223.323 400.021 218.546C402.849 217.63 404.704 219.455 406.464 221.843C407.811 223.671 409.568 225.187 410.868 227.048C414.245 231.887 414.869 233.054 411.179 238.186C403.223 249.246 395.245 260.286 387.388 271.415C384.624 275.324 381.049 278.384 376.496 279.84C354.521 286.862 332.44 293.539 309.865 300.894C309.42 300.995 308.157 300.64 307.048 300.811C306.744 300.86 306.408 300.799 306.329 300.574C306.1 299.946 306.531 299.63 306.768 299.126C307.407 297.771 306.615 295.552 307.499 294.335C320.163 276.875 333.885 260.182 346.569 242.732C347.681 241.202 348.841 239.707 349.953 238.176C351.568 235.951 353.128 233.55 355.708 232.7ZM352.835 202.672C352.835 195.863 353.453 189.072 353.521 182.266C353.54 180.212 355.097 179.259 357.259 179.695C357.631 179.77 357.74 180.568 358.095 180.682C364.933 182.88 372.337 183.31 379.181 185.482C381.436 186.195 382.673 188.515 384.032 190.394C388.681 196.834 393.267 203.31 397.841 209.802C398.839 211.215 399.044 213.286 397.617 214.027C396.947 214.374 396.124 214.608 395.421 214.836C383.543 218.672 371.319 221.422 359.417 225.182C358.363 225.512 357.407 226.108 356.392 225.815C355.436 225.536 353.856 225.171 353.481 224.291C352.911 222.95 352.511 221.218 352.491 219.731C352.409 214.054 352.048 208.327 352.048 202.648C352.052 202.538 352.832 202.783 352.835 202.672ZM412.503 219.48C412.117 218.875 411.563 217.876 411.565 217.18C411.568 216.518 411.915 214.659 412.392 214.384C417.264 211.571 423.175 210.998 428.324 209.387C428.805 209.816 429.615 210.298 429.752 210.61C429.891 210.919 428.956 211.164 428.784 211.424C426.94 214.218 425.513 217.268 423.517 219.948C418.637 226.507 417.121 226.78 412.503 219.48ZM437.16 276.855C437.16 279.88 436.587 282.912 436.496 285.936C436.324 291.592 435.243 291.795 430.096 290.202C425.761 288.862 420.879 289.264 416.56 287.867C410.087 285.775 404.004 282.482 397.545 280.331C389.873 277.772 389.803 277.564 394.447 271.091C400.617 262.483 405.865 253.206 412.127 244.664C413.453 242.852 415.38 241.427 416.905 239.768C417.6 239.01 418.951 239.915 419.723 240.683C420.257 241.215 421.179 241.312 421.616 241.911C425.847 247.715 430.639 253.116 434.837 258.948C436.197 260.836 437.239 263.17 437.241 265.518C437.251 269.299 437.652 273.064 437.652 276.846L437.16 276.855ZM437.171 310.036C437.139 310.486 436.16 312.691 435.879 314.934C435.679 316.519 435.18 317.894 433.792 318.622C432.8 319.143 431.581 319.19 430.511 319.542C417.597 323.775 404.665 327.955 391.767 332.235C387.319 333.716 383.307 333.266 378.827 331.798C355.861 324.282 332.308 318.56 309.368 310.974C308.855 310.804 309.221 308.891 308.953 308.246C308.873 308.056 309.128 308.122 309.363 307.884C309.617 307.626 309.347 306.434 309.687 306.295C311.083 305.716 312.625 305.402 314.06 304.94C334.183 298.452 354.659 293.06 374.784 286.584C375.863 286.238 376.789 285.395 377.857 285.012C382.272 283.423 386.668 282.706 391.16 284.202C404.415 288.618 417.741 292.795 431.047 297.055C436.467 298.788 437.517 301.446 437.728 305.898C437.764 306.654 437.171 307.462 437.171 310.036ZM428.865 404.967C429.203 405.452 429.865 406.582 429.552 406.991C429.247 407.386 427.901 407.755 427.24 407.692C426.513 407.624 425.883 407.688 425.172 407.463C425.045 407.463 425.063 407.15 424.943 407.114C421.119 405.676 417.573 403.43 413.765 401.954C412.389 401.419 412.193 400.178 413.005 398.803C414.335 396.559 414.808 393.367 417.144 391.99C417.688 391.667 419.101 391.923 419.712 392.148C420.36 392.388 420.212 393.795 420.648 394.378C423.317 397.966 426.304 401.304 428.865 404.967ZM429.469 366.666C426.815 370.33 422.961 373.108 420.171 376.671C419.244 377.854 417.929 377.728 416.883 376.592C416.624 376.316 415.352 376.856 415.133 376.559C407.155 365.555 399.453 354.346 391.511 343.315C391.096 342.735 391.853 341.727 391.868 341.031C391.879 340.372 391.729 339.811 392.175 339.302C392.649 338.759 392.988 337.716 393.675 337.492C406.229 333.394 418.728 329.115 431.307 325.107C433.773 324.322 437.281 326.386 437.42 328.791C437.655 332.934 437.189 337.144 437.248 338.707C437.033 357.214 438.648 353.999 429.469 366.666ZM436.227 198.372C436.08 199.343 434.777 199.902 433.968 200.599C433.133 201.319 432.376 202.126 431.324 202.519C429.2 203.316 426.996 203.838 424.824 204.483C402.348 211.14 410.235 214.18 395.677 195.031C394.535 193.523 392.895 192.39 391.781 190.859C384.587 180.978 385.971 182.739 375.965 179.028C371.003 177.19 365.884 175.758 360.857 174.091C359.427 173.616 358.401 172.276 357.031 171.644C355.213 170.807 352.561 170.431 352.537 168.34C352.441 160.026 353.673 151.698 353.743 143.38C353.76 141.406 354.612 140.182 356.497 139.366C358.577 138.464 360.305 136.566 362.464 135.864C384.409 128.744 406.471 121.976 428.432 114.902C429.856 114.443 431.605 115.282 433.079 114.995C434.345 114.747 435.841 115.446 435.959 116.719C436.165 118.974 437.127 121.204 437.143 123.464C437.199 132.171 437.373 140.879 437.373 149.587C437.377 152.236 437.784 154.887 437.784 157.538L437.215 157.536C437.215 168.514 436.039 179.487 435.987 190.463C435.973 193.102 436.621 195.77 436.227 198.372ZM241.243 157.59C241.427 156.106 241.472 153.422 241.849 150.852C241.873 150.714 243.256 150.331 243.613 150.347C243.961 150.366 243.811 151.291 243.997 151.534C246.705 155.1 249.771 158.387 252.368 162.034C253.861 164.132 253.26 166.524 250.575 167.344C249.147 167.782 247.685 168.338 246.217 168.631C243.881 169.096 241.215 167.572 241.075 165.516C240.929 163.276 241.409 160.963 241.243 157.59ZM347.932 458.734C347.789 461.68 348.068 463.67 347.813 465.523C347.735 466.111 346.52 466.844 345.98 467.284C345.805 467.426 345.501 466.468 345.289 466.251C341.617 462.47 338.149 458.755 336.041 453.883C335.805 453.334 335.468 452.011 335.901 451.646C338.256 449.678 341.316 448.274 344.364 448.251C345.167 448.248 347.528 449.862 347.673 450.68C348.199 453.615 347.759 456.8 347.932 458.734ZM526.567 148.262C526.624 171.74 527.808 195.224 527.732 218.702C527.708 226.368 525.157 228.012 518.116 225.752C495.415 218.472 473.095 210.026 450.417 202.679C449.697 202.447 448.876 202.538 448.16 202.296C444.561 201.084 441.901 199.15 442.024 195.094C442.104 192.447 441.769 189.806 441.769 187.156C441.759 176.931 441.353 166.706 441.353 156.48H441.925C441.925 145.499 442.125 134.515 442.168 123.534C442.175 121.27 442.82 119.022 443.008 116.764C443.115 115.522 444.839 114.176 446.065 114.368C447.547 114.595 448.764 115.572 450.183 116.03C472.512 123.232 495.408 128.674 517.728 135.908C518.451 136.143 518.757 137.588 519.469 137.848C526.125 140.276 526.549 140.758 526.567 148.262ZM532.549 151.734C532.587 151.464 533.52 150.926 533.809 150.798C534.111 150.666 534.295 151.49 534.493 151.651C535.36 152.352 536.504 152.65 537.151 153.535C550.965 172.478 565.303 191.038 579.147 209.96C581.484 213.155 582.803 216.792 582.775 220.731C582.684 232.835 583.152 244.946 583.152 257.05L582.429 257.043C582.429 269.518 582.205 281.991 582.209 294.467C582.209 295.423 581.551 295.727 580.616 295.698C580.276 295.688 579.991 295.623 579.769 295.383C578.751 294.28 578.4 292.704 577.519 291.491C564.613 273.758 550.287 257.063 537.267 239.411C533.756 234.654 533.081 229.295 533.149 223.26C533.407 200.948 533.267 178.627 533.292 156.312C533.293 154.816 532.349 153.22 532.549 151.734ZM581.792 202.844C548.671 157.158 514.311 112.363 481.125 66.719C480.012 65.1883 479.485 63.2056 478.301 61.7309C476.865 59.9363 474.784 59.0216 472.525 58.2736C468.573 56.9643 465.061 54.3123 461.101 53.0256C410.709 36.6416 359.709 22.143 309.313 5.7803C305.712 4.60963 302.601 1.89363 298.979 0.80296C296.005 -0.0970399 292.563 -0.323681 289.592 0.553652C286.327 1.51499 283.371 3.51895 280.132 4.57229C235.859 18.967 191.647 33.5536 147.377 47.9523C138.737 50.7643 129.988 53.2336 121.3 55.8803C115.671 57.5936 110.164 59.8803 107.251 65.2709C106.893 65.9323 107.076 66.8896 106.628 67.503C73.9041 112.544 40.7081 157.243 7.96408 202.271C-1.04392 214.66 0.292058 213.031 0.282724 227.63C0.232058 281.796 0.044052 335.966 0.052052 390.13C0.052052 393.164 -0.017255 396.194 0.00407832 399.226C0.0240783 401.959 1.51339 404.33 2.96672 406.607C3.98272 408.202 4.74275 409.98 5.85475 411.51C39.2374 457.482 72.6067 503.459 106.041 549.391C113.2 559.222 111.82 559.124 123.733 562.992C175.573 579.831 227.977 594.923 279.827 611.726C296.495 617.128 292.613 618.342 309.212 613.011C334.076 605.02 358.937 597.015 383.78 588.947C411.497 579.943 438.855 569.844 466.515 560.659C475.371 557.716 474.589 559.672 481.511 550.095C482.396 548.866 484.205 548.307 485.095 547.082C514.04 507.25 542.635 467.168 571.573 427.334C576.027 421.206 579.835 414.607 584.327 408.507C586.425 405.662 587.295 402.818 587.236 399.258C587.185 396.23 586.856 393.188 586.856 390.158C586.859 362.887 587.423 335.612 587.423 308.338C587.421 280.687 588.089 253.034 588.035 225.383C588.009 211.52 589.603 213.614 581.792 202.844Z"/>
</mask>
<path fill-rule="evenodd" clip-rule="evenodd" d="M582.589 361.143C582.589 372.867 582.311 384.592 582.395 396.319C582.421 400.23 581.169 403.559 578.811 406.782C564.739 426.008 550.777 445.318 536.721 464.555C536.124 465.374 534.665 465.063 533.743 465.6C533.568 465.702 532.605 466.487 532.551 466.27C532.299 465.176 533.297 463.863 533.295 462.751C533.261 439.298 533.279 415.847 533.289 392.396C533.292 388.999 532.271 385.223 534.456 382.238C549.2 362.099 564.163 342.116 578.923 321.992C579.223 321.586 580.543 322.611 581.227 322.592C581.429 322.587 581.416 322.375 581.488 322.676C581.663 323.406 582.507 324.076 582.519 324.826C582.565 327.471 582.764 330.126 582.765 332.774C582.769 342.23 583.176 351.687 583.176 361.144L582.589 361.143ZM530.888 376.98C530.275 377.692 529.095 377.676 528.472 377.008C527.448 375.907 525.415 375.607 524.539 374.395C510.287 354.811 496.343 335.01 482.136 315.395C481.029 313.868 480.928 311.762 480.156 310.058C479.743 309.139 479.343 308.227 479.675 307.264C480.156 305.864 480.373 304.21 481.255 302.995C495.693 283.079 509.991 263.063 524.475 243.183C525.357 241.972 526.22 240.446 527.34 239.455C527.824 239.032 529.417 239.37 530.115 239.186C530.76 239.543 531.675 240.05 532.128 240.57C533.615 242.28 534.693 244.326 536.032 246.156C549.175 264.203 562.333 282.24 575.425 300.326C581.488 308.702 580.803 308.046 574.781 316.358C561.461 334.747 549.625 354.212 536.247 372.554C534.917 374.376 532.36 375.263 530.888 376.98ZM527.508 432.754C527.511 444.084 526.753 455.418 526.732 466.751C526.727 469.014 526.561 471.247 526.351 473.496C526.123 475.954 525.228 477.874 522.976 478.826C521.933 479.267 520.712 479.244 519.637 479.595C496.659 487.052 473.685 494.52 450.704 501.96C449.275 502.424 447.62 501.966 446.163 502.327C444.889 502.644 442.245 502.495 442.073 501.271C441.864 499.787 442.855 498.175 442.855 496.683C442.827 472.13 442.855 447.575 442.871 423.02C442.871 421.892 441.817 420.672 441.952 419.552C442.149 417.951 443.553 416.49 444.908 415.722C446.212 414.983 448.019 415.384 449.444 414.918C472.765 407.298 495.965 399.295 519.304 391.73C520.729 391.27 522.076 390.388 523.556 390.111C524.904 389.858 527.232 391.562 527.345 393.062C527.492 394.942 528.057 396.868 528.06 398.751C528.087 410.083 527.508 421.42 527.508 432.754ZM517.873 488.767C517.647 489.476 517.808 490.25 517.431 490.89C516.855 491.867 516.812 493.204 516.147 494.119C503.011 512.182 489.951 530.291 476.961 548.452C474.149 552.387 470.472 555.384 466.019 556.819C442.983 564.243 419.78 571.178 396.711 578.646C396.095 578.436 395.157 578.04 394.553 577.7C394.387 577.607 394.672 576.827 394.829 576.543C395.561 575.228 396.276 573.92 397.156 572.707C410.267 554.628 424.089 537.07 437.223 519.008C437.667 518.396 436.592 516.74 436.999 516.103C439.337 512.432 443.453 511.016 447.623 509.714C455.563 507.227 463.431 504.495 471.353 501.952C486.469 497.1 501.251 491.182 516.4 486.44C516.928 486.275 518.159 487.227 518.753 487.606C518.933 487.72 517.983 488.428 517.873 488.767ZM384.855 578.846C383.567 580.415 382.215 580.204 380.215 579.714C378.019 579.174 375.343 580.307 373.188 579.608C351.968 572.747 331.145 564.659 309.932 557.762C307.777 557.062 305.705 556.202 303.604 555.351C301.795 554.622 300.264 552.348 301.297 550.696C302.499 548.772 304.005 547.006 305.335 545.174C318.436 527.108 332.475 509.72 345.597 491.666C345.82 491.356 345.693 490.802 345.919 490.498C350.372 484.46 351.212 482.582 360.024 485.499C381.915 492.746 403.96 499.519 425.893 506.646C428.031 507.338 430.373 507.948 432.387 508.955C432.919 509.223 433.105 511.052 433.527 511.814C433.128 512.755 432.019 513.623 431.407 514.523C429.061 517.96 427.208 521.739 424.759 525.107C413.193 541.018 401.267 556.662 389.677 572.558C388.117 574.695 386.535 576.803 384.855 578.846ZM368.301 587.263C345.987 594.503 323.628 601.615 301.364 609.004C296.42 610.644 292.357 609.812 287.428 608.148C268.788 601.854 249.439 597.684 230.74 591.556C226.444 590.147 222.603 587.39 218.347 585.862C218.061 585.76 218.112 585.626 218.045 585.287C217.996 585.026 217.324 584.072 217.545 583.924C218.483 583.311 219.693 582.838 220.737 582.499C243.053 575.244 265.724 569.11 288.048 561.891C289.128 561.544 290.033 560.691 291.127 560.402C293.364 559.806 295.651 559.102 297.879 559.774C300.416 560.54 303.017 561.135 305.537 561.951C325.689 568.494 345.963 574.674 366.131 581.171C368.303 581.874 370.468 583.464 372.404 584.567C371.625 586.431 369.665 586.82 368.301 587.263ZM200.235 575.936C186.645 557.306 174.129 537.895 160.613 519.214C159.075 517.088 157.892 514.763 156.559 512.491C156.137 511.772 156.111 509.536 156.919 509.142C158.609 508.319 160.451 507.636 162.224 507.06C184.855 499.694 207.844 493.438 230.505 486.158C232.279 485.587 233.956 484.838 235.813 484.743C236.839 484.69 238.361 484.503 239.136 485.174C240.551 486.398 242.008 487.822 243.117 489.339C257.364 508.892 271.923 528.223 286.105 547.824C287.175 549.307 287.495 551.636 288.277 553.102C287.597 554.05 286.756 554.727 286.171 555.028C284.507 555.884 282.801 556.635 281.021 557.216C258.385 564.568 235.439 570.982 212.844 578.46C205.464 580.904 204.212 581.39 200.235 575.936ZM193.731 577.594C193.417 578.026 192.095 578.512 191.427 578.474C190.697 578.436 189.757 578.431 189.04 578.199L189.159 577.68C167.229 570.599 145.613 562.563 123.691 555.47C122.256 555.004 120.653 555.008 119.357 554.271C117.745 553.354 116.357 552.122 114.996 550.872C113.901 549.864 113.269 548.486 112.381 547.263C99.2587 529.231 85.5828 511.603 72.4934 493.548C71.6121 492.332 71.2174 490.794 70.6467 489.411C70.4561 488.948 70.9747 488.307 71.3187 487.727C71.4627 487.482 71.6561 488.244 71.9708 488.29C73.0788 488.451 74.6134 486.776 75.6734 487.12C96.8787 493.992 117.672 502.112 138.865 509.004C140.303 509.471 141.732 509.898 143.141 510.443C145.659 511.412 148.533 512.06 150.161 514.25C151.064 515.46 151.732 516.855 152.621 518.076C165.729 536.118 177.928 554.82 191.021 572.875C191.681 573.783 192.656 574.41 193.092 575.435C193.351 576.042 194.063 577.135 193.731 577.594ZM62.0481 475.204C61.6227 473.386 61.8094 471.308 61.8081 469.432C61.7721 445.231 62.8988 421.034 62.9308 396.832C62.9334 395.34 62.8121 393.892 63.0067 392.402C63.1174 391.568 64.4334 390.124 65.3867 390.306C67.2387 390.659 69.2427 390.711 71.0254 391.286C92.5961 398.262 114.287 404.876 135.833 411.934C139.033 412.983 142.524 414.308 145.175 417.055C146.741 420.438 145.544 424.52 145.553 428.267C145.603 449.442 145.445 470.616 145.423 491.791C145.42 494.434 145.977 497.094 145.805 499.731C145.759 500.448 145.089 501.096 144.673 501.679C144.273 502.235 143.728 502.682 143.076 502.879C142.404 503.082 141.923 502.214 141.229 502.01C137.608 500.948 133.436 501.651 129.844 500.483C110.795 494.299 92.1467 486.895 73.1187 480.647C70.2601 479.711 67.5134 478.575 64.8161 477.258C63.9468 476.835 62.2814 476.196 62.0481 475.204ZM58.2227 377.344C57.0454 376.448 55.9641 375.428 55.0721 374.243C51.4374 369.4 48.5667 364.006 45.0067 359.11C34.7734 345.027 23.0148 332.055 12.8041 317.955C11.2521 315.815 10.8241 312.886 9.39474 310.659C8.52808 309.303 8.47209 308.25 9.28142 306.844C10.2241 305.211 10.2827 302.97 11.3894 301.443C25.1681 282.454 39.2427 263.678 53.0561 244.712C54.1641 243.191 56.2894 242.487 57.5241 241.06C58.5854 239.831 59.7014 239.454 60.7107 240.552C61.7281 241.663 63.3681 242.279 64.2561 243.494C78.5081 263.071 92.9068 282.55 107.12 302.156C108.007 303.376 109.185 304.59 109.865 305.935C110.193 306.579 109.732 307.839 109.88 308.575C109.735 309.312 109.229 310.092 108.876 310.708C107.752 312.671 106.411 314.482 105.085 316.311C91.3188 335.31 77.4148 354.207 63.5908 373.164C62.4881 374.674 61.6827 376.484 60.2894 377.73C59.9001 378.08 58.6841 377.696 58.2227 377.344ZM56.8587 427.374C56.8587 439.491 56.6601 451.61 56.5881 463.727C56.5814 464.732 55.6001 465.683 55.1094 466.615C54.7121 467.366 53.1467 466.328 51.9281 464.651C38.3494 445.967 25.5227 426.727 11.8427 408.118C9.01074 404.266 5.89473 400.835 5.90939 396.114C5.94539 385.89 7.17206 375.67 7.16806 365.444C7.16006 354.086 7.16273 342.726 7.21473 331.367C7.22406 329.11 6.27074 326.738 6.59474 324.507C6.6734 323.967 8.12939 323.016 8.71872 322.894C9.32405 322.767 9.78008 324.011 10.2747 324.443C11.1201 325.175 12.0387 325.735 12.7027 326.654C25.8401 344.722 39.5108 362.398 52.7068 380.426C55.5041 384.25 57.1787 388.506 57.0947 393.303C56.9067 404.66 57.4467 416.014 57.4467 427.374H56.8587ZM7.17209 225.195C7.17209 223.68 7.2694 222.155 7.23207 220.642C7.12673 216.3 7.53606 212.18 10.1107 208.67C23.5427 190.354 37.1254 172.15 50.5108 153.799C51.3828 152.607 53.3401 152.359 54.4121 151.324C54.6214 151.122 54.5227 150.872 54.8467 150.944C55.1961 151.022 56.2014 150.902 56.2334 151.139C56.4934 153 57.0121 154.923 57.0214 156.791C57.0734 167.771 57.4547 178.754 57.4547 189.732H56.8827C56.8827 201.092 56.1827 212.454 56.3987 223.808C56.4894 228.612 55.0068 232.455 52.2068 236.272C43.4748 248.176 34.7867 260.115 26.0654 272.026C20.7081 279.339 15.7587 286.958 10.2361 294.148C9.95872 294.51 8.72006 293.982 8.02406 293.891C7.78272 293.859 7.69075 293.514 7.58542 293.184C7.35208 292.472 7.95874 291.746 7.91741 291.01C7.81074 289.12 5.88941 287.286 5.88941 285.392C5.88141 265.328 7.16809 245.263 7.17209 225.195ZM61.6828 183.516C61.6828 172.936 62.4254 162.355 62.4708 151.774C62.4841 148.756 62.7774 145.77 62.9881 142.759C63.0974 141.16 63.4441 139.656 64.8961 139C66.9588 138.067 69.2147 137.602 71.3654 136.904C93.6321 129.675 115.908 122.468 138.196 115.3C139.615 114.844 141.245 115.531 142.721 115.276C143.419 115.155 145.824 115.283 145.932 116.007C146.215 117.858 145.363 119.843 145.391 121.703C145.492 128.126 145.437 134.544 145.437 140.968C145.437 157.975 146.66 174.984 146.579 191.99C146.539 200.448 145.521 201.426 138.111 203.863C115.153 211.412 91.8201 217.804 68.8281 225.243C67.4281 225.692 66.1081 226.171 64.6268 226.159C64.0374 226.154 62.6801 225.928 62.5614 225.412C62.1321 223.61 61.5814 221.648 61.5734 219.8C61.5068 207.706 61.1281 195.612 61.1281 183.518L61.6828 183.516ZM70.0321 128.439C70.6934 127.094 71.6694 125.978 72.5534 124.756C85.2294 107.283 97.3601 89.4203 110.055 71.9603C111.168 70.4296 112.755 69.2296 113.811 67.6576C115.588 65.011 118.044 63.575 120.923 62.4816C121.983 62.0776 123.335 62.5896 124.415 62.2376C146.001 55.1976 167.003 46.3563 188.595 39.331C189.659 38.983 191.108 39.995 192.215 39.811C192.511 39.7616 192.555 39.7203 192.641 39.9549C192.877 40.5883 194.3 41.5483 194.071 42.067C193.461 43.4323 192.308 44.6603 191.425 45.8749C178.535 63.6563 164.705 80.759 151.792 98.523C151.344 99.1363 151.177 99.987 150.783 100.631C148.497 104.376 145.536 107.174 141.389 108.447C136.327 110 131.361 111.854 126.321 113.492C111.208 118.404 96.2294 123.714 81.1174 128.632L80.9747 128.223C77.7121 129.156 74.1694 129.138 70.8961 130.028C70.6121 130.107 70.2667 130.411 70.1881 130.198C69.9507 129.576 69.7907 128.926 70.0321 128.439ZM203.616 39.1243C205.189 37.1603 206.796 36.627 209.201 37.2296C211.764 37.875 214.631 37.5216 217.147 38.3376C238.361 45.2176 259.468 52.4416 280.673 59.3576C282.469 59.9443 283.819 61.731 285.568 62.4416C287.004 63.0216 287.783 64.0843 287.048 65.2816C285.859 67.207 285.303 69.5643 283.979 71.3936C270.663 89.779 257.483 108.262 244.125 126.615C242.792 128.446 241.649 130.586 240.108 132.234C239.384 133.004 237.548 133.126 236.324 133.838C234.605 133.43 232.808 132.363 231.037 131.795C220.597 128.455 210.216 124.928 199.791 121.535C188.284 117.791 176.568 114.69 165.072 110.919C162.917 110.214 160.931 109.039 158.821 108.214C156.111 107.158 155.413 105.447 156.793 103.247C157.596 101.966 159.076 101.19 159.964 99.9683C173.743 80.9856 186 60.8976 199.797 41.9296C200.685 40.707 202.671 40.3056 203.616 39.1243ZM218.069 30.803C219.035 30.243 220.037 29.4443 221.092 29.0989C243.001 21.9349 264.787 14.391 286.719 7.29897C289.212 6.49364 292.145 6.57762 294.711 5.96828C297.384 6.68962 300.011 7.51229 302.513 8.31362C317.629 13.1483 332.601 18.423 347.693 23.327C354.876 25.6643 362.033 28.0763 369.168 30.5589C369.715 30.7496 369.321 31.5043 369.319 32.1043C369.317 32.6229 369.943 34.199 369.371 34.4083C364.768 36.1016 359.725 36.5563 355.057 38.0723C336.729 44.0216 318.344 49.799 300.063 55.883C295.864 57.2776 292.021 58.267 287.879 56.907C265.984 49.7256 244.131 42.4096 222.204 35.3096C220.787 34.851 219.959 33.0203 218.633 32.3069C218.384 32.1709 218.123 32.419 218.131 32.127C218.139 31.7883 217.801 30.9576 218.069 30.803ZM378.567 37.4443C381.895 36.4256 384.904 36.6616 386.892 39.4163C387.775 40.6416 388.437 42.0296 389.327 43.2523C403.115 62.2216 416.004 81.839 429.753 100.838C430.843 102.344 431.993 103.748 432.713 105.47C432.911 105.943 432.945 107.308 432.456 107.591C430.841 108.532 429.123 109.616 427.351 110.196C404.355 117.702 381.467 125.551 358.451 132.991C356.673 133.566 354.492 133.402 352.761 133.838C351.547 133.278 350.597 132.318 349.795 131.61C348.675 130.624 347.945 129.327 347.057 128.107C332.819 108.528 318.035 89.347 303.828 69.747C302.948 68.5296 302.608 66.9456 301.857 65.6376C301.207 64.5003 301.859 62.5896 303.157 62.0683C305.605 61.0816 308.313 60.8976 310.819 60.0736C324.819 55.463 338.243 49.083 352.264 44.527C359.811 42.071 367.779 40.907 375.337 38.483C376.416 38.1376 377.483 37.7736 378.567 37.4443ZM395.329 40.035C395.535 39.739 396.127 40.299 396.387 40.3416C397.859 40.5883 399.371 40.403 400.787 40.8603C422.381 47.8243 444.172 54.1736 465.784 61.0869C470.28 62.5256 474.136 64.9483 476.936 68.8483C490.623 87.9003 504.821 106.58 518.577 125.583C519.201 126.446 519.005 128.308 519.383 129.303C518.672 129.792 517.559 130.692 517.117 130.595C514.543 130.024 512.1 128.92 509.592 128.1C490.183 121.755 470.784 115.378 451.384 109.01C449.945 108.536 448.744 107.302 447.3 106.847C443.568 105.675 439.653 104.994 437.344 101.774C429.409 90.699 422.396 78.963 414.392 67.943C408.832 60.287 403.268 52.639 397.761 44.9483C396.909 43.759 395.337 42.9016 394.729 41.5523C394.612 41.291 395.136 40.3096 395.329 40.035ZM475.02 301.439C473.445 303.43 471.649 304.38 469.264 304.019C468.516 303.907 467.852 303.395 467.14 303.166C460.672 301.068 454.221 298.892 447.731 296.856C443.877 295.651 443.425 293.231 443.449 289.386C443.493 282.199 441.368 274.976 441.564 267.796C441.708 262.643 441.572 257.932 438.412 253.854C434.939 249.372 431.731 244.703 428.417 240.1C427.311 238.567 425.232 237.667 424.239 236.059C422.965 233.995 422.832 231.083 424.263 229.052C429.051 222.259 434.877 216.218 439.841 209.548C441.068 207.902 442.292 207.27 444.237 207.884C452.889 210.607 461.737 212.72 470.365 215.51C485.469 220.395 500.644 225.075 515.725 230.028C517.849 230.726 520.175 231.444 522.151 232.508C522.669 232.791 522.768 234.618 523.081 235.279C522.877 235.996 521.892 236.539 521.515 237.151C520.332 239.082 519.489 241.22 518.16 243.054C505.276 260.807 492.201 278.422 479.284 296.156C477.952 297.987 476.431 299.664 475.02 301.439ZM441.765 307.136C441.936 303.763 444.648 301.824 447.576 302.698C450.784 303.651 453.603 305.8 456.769 306.876C457.463 307.111 458.172 307.135 458.831 307.478C459.629 307.899 460.432 308.378 460.113 309.206C459.991 309.522 459.653 310.372 459.389 310.474C456.288 311.682 453.3 313.171 450.204 314.395C443.956 316.864 441.837 313.491 441.985 308.275C442 307.903 441.745 307.508 441.765 307.136ZM435.139 402.436C431.597 397.543 428.201 392.558 424.819 387.55C423.707 385.904 423.161 383.991 424.268 382.31C426.969 378.215 430.159 374.447 432.999 370.442C444.235 354.586 442.309 359.727 442.564 341.344C442.631 336.432 443.488 331.534 443.564 326.62C443.605 324.164 443.297 321.159 445.6 320.372C453.812 317.567 462.505 316.21 470.792 313.634C472.352 313.15 473.305 313.836 474.376 314.97C475.412 316.06 477.229 316.548 478.116 317.77C492.344 337.328 506.293 357.094 520.483 376.683C521.572 378.188 521.476 380.391 522.235 382.09C522.456 382.584 522.619 383.155 522.165 383.467C520.947 384.299 519.888 385.654 518.483 386.112C504.489 390.706 490.535 395.432 476.524 399.976C466.105 403.355 455.811 407.127 445.38 410.464C444.335 410.8 442.8 410.31 441.887 410.454C441.024 409.978 440.379 409.255 439.921 408.727C438.199 406.727 436.687 404.572 435.139 402.436ZM354.507 448.379C354.521 446.796 354.228 444.823 355.64 444.124C356.988 443.458 358.924 444.11 360.349 443.627C366.087 441.692 371.708 439.416 377.576 438.026C383.963 436.51 387.58 431.978 391.065 426.718C393.991 422.299 397.504 418.247 400.653 413.979C401.997 412.158 404.329 411.131 405.817 409.418C406.889 408.18 407.788 407.452 409.251 407.915C417.184 410.411 425.313 412.324 433.188 415.008C435.569 415.823 437.132 418.156 437.199 420.647C437.283 423.676 437.772 426.722 437.777 429.751C437.796 439.98 437.22 450.21 437.22 460.439C437.217 471.047 436.824 481.654 436.784 492.262C436.773 494.906 436.023 497.514 435.841 500.154C435.701 502.171 434.329 503.622 432.527 503.112C429.253 502.184 426.053 501.031 422.817 499.982C406.971 494.842 391.183 489.532 375.347 484.367C370.669 482.842 365.76 482.01 361.104 480.424C359.321 479.815 357.745 478.652 356.056 477.816C354.629 477.108 353.688 475.995 353.668 474.456C353.565 465.759 354.42 457.075 354.507 448.379ZM352.42 413.939C352.561 407.13 352.895 400.315 353.092 393.51C353.151 391.487 355.133 390.555 357.296 391.018C358.772 391.338 360.251 391.595 361.683 392.062C367.435 393.943 372.892 396.708 378.637 398.607C383.665 400.268 389.307 400.074 394.329 401.747C395.391 402.103 395.939 403.855 396.96 404.328C398.319 404.956 398.705 406.226 397.78 407.519C392.951 414.286 389.08 421.759 384.121 428.427C383.265 429.579 381.405 430.503 380.047 430.966C372.889 433.4 365.321 434.575 358.116 436.868C357.769 436.978 357.548 437.282 357.176 437.331C355.817 437.515 353.48 436.707 353.283 435.506C353.037 434.02 352.5 432.471 352.48 430.975C352.409 425.298 352.043 419.647 352.043 413.971L352.42 413.939ZM306.324 320.435C305.901 319.852 305.447 319.015 305.248 318.306C305.165 318.002 305.009 316.83 305.193 316.564C305.389 316.28 306.541 316.271 306.847 316.062C307.596 316.115 308.525 316.252 309.22 316.476C331.487 323.696 353.592 331.427 375.892 338.554C380.423 340.003 383.837 342.227 386.584 346.163C392.205 354.22 397.428 362.574 403.191 370.531C406.069 374.511 410.448 377.422 413.263 381.447C414.721 383.53 413.683 385.935 412.203 387.991C410.004 391.055 407.759 394.058 405.407 397.006C404.424 398.244 403.196 399.587 401.616 399.439C401.244 399.404 400.829 398.931 400.471 398.814C385.74 394.047 371.367 388.171 356.619 383.456C353.592 382.491 351.335 381.282 349.499 378.746C335.307 359.164 320.504 340.024 306.324 320.435ZM346.896 433.102C346.889 434.976 346.721 436.783 346.297 438.598C346.061 439.611 346.173 441.506 345.315 442.038C341.092 444.64 336.045 445.66 331.173 446.343C330.527 446.435 330.093 445.158 329.617 444.679C328.292 443.354 326.763 442.278 325.656 440.764C317.856 430.094 309.628 419.742 301.688 409.176C298.809 405.342 297.123 401.04 297.159 396.347C297.177 394.083 296.713 391.822 296.711 389.556C296.705 380.114 297.276 370.67 297.276 361.23C297.277 351.408 298.021 341.591 298.064 331.772C298.075 329.516 298.363 327.308 298.651 325.072C298.72 324.53 299.016 323.534 299.592 323.414C300.184 323.291 300.949 324.018 301.448 324.45C302.291 325.184 302.975 326.058 303.636 326.97C316.744 344.987 329.092 363.562 342.296 381.507C345.365 385.682 348.324 389.472 348.261 394.592C348.111 407.432 346.947 420.263 346.896 433.102ZM244.032 476.936C248.575 469.507 253.435 462.116 259.173 455.563C259.835 454.808 261.865 454.835 262.947 454.344C264.459 454.69 265.947 455.47 267.373 455.919C274.585 458.196 281.736 460.655 288.9 463.08C292.665 464.354 296.489 464.395 300.24 463.104C307.035 460.762 313.695 458.014 320.555 455.856C321.985 455.407 323.563 455.471 325.045 455.238C326.619 454.988 328.063 455.334 328.964 456.544C334.171 463.51 338.568 471.054 343.639 478.115C344.607 479.463 345.963 480.802 345.188 482.188C344.455 483.507 342.544 484.118 341.657 485.342C327.201 505.247 312.723 525.139 298.216 545.008C297.345 546.199 296.968 548.067 295.769 548.94C295.292 549.288 293.368 549.028 293.025 548.678C291.183 546.8 290.233 544.16 288.681 542.036C277.515 526.758 266.055 511.696 254.957 496.366C251.631 491.771 247.783 487.535 244.58 482.852C243.448 481.202 242.983 478.647 244.032 476.936ZM241.401 461.167C241.401 457.638 241.456 456.492 241.483 455.362C241.644 448.419 242.857 448.458 249.892 450.995C250.585 451.244 251.339 451.223 252.001 451.556C252.849 451.986 253.891 453.58 253.435 454.419C250.917 459.059 248.185 463.783 244.053 467.196C243.885 467.336 241.685 466.796 241.659 466.646C241.228 464.098 241.432 461.372 241.401 461.167ZM243.852 382.839C258.589 362.696 274.175 343.174 288.932 323.044C289.235 322.63 289.641 322.543 290.323 322.51C290.496 322.502 291.207 322.659 291.233 322.959C291.377 324.459 291.723 326.002 291.728 327.504C291.748 338.854 292.148 350.207 292.148 361.559L291.531 361.555C291.531 373.66 290.843 385.763 290.887 397.87C290.899 401.007 290.181 403.684 288.32 406.236C279.399 418.456 269.793 430.187 260.947 442.458C258.84 445.386 256.84 447.462 253.603 446.122C253.256 445.979 253.325 444.724 252.964 444.614C241.553 441.119 242.316 441.918 242.292 430.226C242.269 417.363 241.125 404.502 241.144 391.638C241.149 388.578 241.936 385.458 243.852 382.839ZM231.652 384.882C217.228 389.459 202.917 394.39 188.521 399.059C186.096 399.847 183.036 399.294 181.499 397.264C178.776 393.664 175.909 389.807 174.199 384.995C175.439 382.914 177.229 380.667 178.743 378.562C186.249 368.106 193.961 357.791 201.341 347.247C204.541 342.68 208.605 340.671 213.959 339.008C230.583 333.856 246.515 326.531 263.079 321.192C268.831 319.338 274.993 318.798 280.792 317.107C281.267 316.967 281.627 317.566 282.155 317.998C282.355 318.164 283.299 318.458 283.249 318.826C283.2 319.191 282.673 319.655 282.484 319.972C281.909 320.948 280.417 321.302 279.757 322.215C266.432 340.611 253.42 359.238 240.125 377.658C237.833 380.834 235.464 383.671 231.652 384.882ZM235.167 435.8C234.835 437.02 233.852 437.351 232.741 437.474C231.641 437.599 230.773 436.783 229.729 436.451C223.247 434.382 216.165 434.079 209.753 431.798C208.032 431.184 206.732 429.182 205.677 427.798C200.643 421.182 195.884 414.378 191.056 407.603C190.188 406.388 190.117 403.987 191.401 403.332C192.404 402.82 193.588 402.504 194.649 402.152C206.139 398.352 217.977 395.638 229.496 391.926C230.897 391.475 232.215 390.939 233.695 390.946C234.28 390.948 235.477 391.143 235.741 391.73C236.191 392.722 236.715 394.03 236.725 395.12C236.789 401.552 237.168 407.991 237.168 414.423L236.62 414.426C236.62 420.103 236.451 425.783 236.364 431.459C236.34 432.935 235.561 434.367 235.167 435.8ZM151.089 460.015C151.092 449.438 152.289 438.862 152.303 428.286C152.308 426.02 151.585 423.755 151.621 421.491C151.683 418.004 153.805 416.462 156.943 415.339C159.071 414.579 161.049 413.388 163.207 412.71C168.607 411.012 174.063 409.528 179.489 407.934C181.04 407.475 182.16 408.076 183.187 409.204C184.96 411.154 187.071 412.835 188.637 414.96C192.449 420.126 195.863 425.584 199.625 430.787C201.692 433.643 204.516 435.574 207.896 436.634C214.376 438.672 220.545 441.65 226.991 443.788C228.78 444.383 231.283 443.172 232.981 443.964C234.749 444.786 235.428 446.928 235.453 448.994C235.561 457.294 235.561 465.588 235.469 473.89C235.449 475.906 234.843 478.004 233.125 478.919C231.801 479.623 230.113 479.792 228.677 480.26C206.065 487.61 183.105 493.88 160.483 501.198C158.701 501.776 157.019 502.586 155.192 503.027C154.117 503.286 151.727 502.042 151.613 500.807C151.407 498.558 150.975 496.267 150.959 494.011C150.907 485.323 150.524 476.632 150.524 467.946C150.524 465.302 151.089 462.658 151.089 460.015ZM113.117 316.619C115.217 313.806 117.563 313.416 120.723 314.348C126.529 316.06 132.647 316.774 138.42 318.6C139.861 319.059 141.228 319.95 142.595 320.592C144.423 321.452 144.681 323.343 144.847 325.359C145.061 327.998 145.539 330.595 145.565 333.244C145.613 338.547 146.477 343.87 146.284 349.164C146.093 354.364 147.848 358.376 150.949 362.466C155.065 367.899 159.319 373.263 163.28 378.816C164.583 380.642 165.761 382.946 165.9 385.342C165.812 385.738 164.929 385.859 164.728 386.143C159.683 393.236 155.029 400.604 149.909 407.64C148.463 409.628 146.637 410.227 144.129 409.388C142.693 408.907 141.271 408.386 139.829 407.918C117.863 400.796 95.6761 394.347 73.7294 387.17C71.2401 386.358 69.0214 384.792 66.6761 383.616C66.2241 383.392 65.9988 382.518 66.1268 381.924C66.3574 380.85 67.4587 380.312 68.1054 379.422C82.7774 359.178 95.9574 337.854 110.668 317.636C111.112 317.026 112.667 317.226 113.117 316.619ZM145.876 312.766C145.395 313.602 143.468 314.704 142.747 314.578C137.931 313.751 133.644 311.483 129.351 309.015C129.104 308.872 128.912 309.031 128.88 308.696C128.851 308.378 128.34 307.647 128.552 307.466C129.113 306.988 129.779 306.227 130.459 305.986C133.292 304.97 136.047 303.58 138.92 302.698C144.003 301.143 146.256 303.399 146.233 309.606C146.132 310.242 146.399 311.852 145.876 312.766ZM150.688 210.018C151.868 211.499 152.72 213.227 153.779 214.791C168.745 236.846 169.183 227.42 153.836 249.458C145.192 261.868 144.951 259.378 144.847 274.56C144.807 280.236 146.608 285.947 146.451 291.618C146.379 294.156 143.913 295.462 141.605 296.243C134.441 298.667 127.265 301.022 120.032 303.224C117.335 304.044 114.349 304.282 112.515 301.84C111.38 300.328 110.439 298.662 109.324 297.132C95.9534 278.772 83.5014 259.746 70.1561 241.368C69.0494 239.84 67.7254 238.502 66.7307 236.894C65.6681 235.168 65.9814 232.874 67.9147 232.103C69.3214 231.542 70.7001 230.802 72.1374 230.335C94.4441 223.086 116.631 215.456 138.944 208.232C141.095 207.538 143.563 207.486 145.829 206.827C146.871 207.258 147.737 208.434 148.685 208.978C149.315 209.343 150.221 209.432 150.688 210.018ZM235.133 163.486C235.079 170.916 235.805 172.512 228.86 174.879C222.775 176.955 216.332 177.944 210.139 179.648C204.704 181.144 200.489 184.351 197.42 188.99C194.504 193.404 192.193 198.268 189.055 202.538C187.711 204.367 186.059 205.991 184.637 207.763C183.105 209.667 181.196 209.731 178.651 208.89C171.827 206.63 164.831 204.906 158.04 202.559C152.881 200.774 151.323 199.446 151.193 193.531C151.092 188.99 150.939 184.439 150.936 179.894C150.931 172.324 150.524 164.751 150.524 157.179H151.1C151.1 145.823 152.071 134.468 152.139 123.112C152.155 120.87 152.067 118.635 152.375 116.403C152.545 115.17 154.444 114.211 155.728 114.446C156.837 114.652 157.887 114.922 158.951 115.266C181.628 122.599 204.511 129.296 227.175 136.672C228.971 137.256 230.572 138.387 232.315 139.126C234.613 140.103 235.775 141.714 235.819 144.194C235.936 150.627 235.18 157.052 235.133 163.486ZM236.38 201.399C236.38 208.559 235.779 215.699 235.691 222.855C235.66 225.244 233.548 226.639 231.16 226.159C230.787 226.082 230.68 225.292 230.328 225.178C217.783 221.132 204.657 218.88 192.127 214.792C191.436 214.568 191.328 213.047 190.881 212.495C190.468 211.978 190.449 211.396 190.332 210.707C190.277 210.386 189.444 209.622 189.652 209.328C194.248 202.891 199.112 196.634 203.791 190.255C204.663 189.067 206.365 188.686 207.667 188.151C216.021 184.715 224.357 181.484 233.223 179.635C234.12 179.448 236.028 180.207 236.125 181.038C236.301 182.522 236.765 184.051 236.78 185.54C236.835 190.819 237.209 196.155 237.209 201.431C237.203 201.563 236.387 201.268 236.38 201.399ZM196.529 331.926C183.985 327.688 171.128 324.394 158.537 320.3C157.459 319.95 156.22 319.78 155.207 319.283C153.025 318.218 150.925 316.04 150.732 313.552C150.617 312.044 151.135 310.448 151.152 310.772C151.152 307.8 152.028 306.68 152.065 305.547C152.228 300.967 152.795 299.18 156.873 297.719C157.229 297.591 157.747 297.926 158.104 297.807C171.048 293.564 184.007 289.38 196.912 285.032C201.768 283.396 206.037 284.188 210.909 285.782C232.12 292.72 253.968 297.707 275.177 304.644C276.881 305.199 277.849 307.635 279.385 308.644C279.525 308.739 279.48 308.81 279.295 308.899C276.943 310.043 275.055 312.423 272.584 313.242C260.381 317.29 248.017 320.884 235.784 324.851C227.865 327.419 219.543 328.796 211.688 331.548C206.439 333.384 201.787 333.702 196.529 331.926ZM168.467 224.872C165.532 221.035 162.432 217.3 159.591 213.392C159.223 212.884 158.711 210.984 158.999 210.474C159.251 210.024 161.201 210.052 162.053 209.766C166.151 211.135 170.436 212.604 174.665 214.075C176.401 214.678 176.34 217.018 175.216 218.65C173.951 220.478 172.932 222.448 171.535 224.184C170.868 225.015 169.019 225.592 168.467 224.872ZM168.607 241.462C169.84 239.822 171.933 238.708 173.276 240.267C174.017 241.126 173.772 242.803 174.46 243.706C175.381 244.903 176.229 246.143 177.117 247.37C182.892 255.331 189.652 262.587 195.365 270.592C196.444 272.104 197.019 274.11 197.727 275.835C197.939 276.346 196.567 276.972 196.153 277.508C195.72 278.072 195.505 278.702 194.819 278.927C181.905 283.198 169.207 288.126 156.269 292.327C154.571 292.879 151.497 290.932 151.372 289.16C151.103 285.392 150.549 281.566 150.353 277.794C150.356 277.676 151.151 277.887 151.159 277.767C151.159 274.363 151.832 270.99 151.812 267.583C151.799 264.451 152.632 261.692 154.444 259.187C158.876 253.06 164.063 247.506 168.607 241.462ZM176.804 399.506C176.993 400.05 176.725 401.428 176.337 401.967C175.92 402.55 175.125 403.656 174.453 403.914C169.873 405.671 164.975 406.883 160.045 407.416C159.812 407.586 159.431 406.942 159.171 406.999C159.045 407.027 158.093 406.932 158.123 406.818C158.191 406.556 158.797 406.372 158.972 406.142C161.312 400.934 165.419 397.08 169.591 393.202C169.983 392.838 170.451 392.531 170.931 392.846C173.531 394.543 175.791 396.61 176.804 399.506ZM170.931 376.888C170.293 377.47 169.244 377.687 168.632 376.868C163.683 370.239 158.055 364.095 153.336 357.304C152.121 355.556 151.332 352.947 151.127 350.764C150.812 347.403 150.631 343.934 150.631 340.543L151.213 340.547C151.213 337.156 151.779 333.771 151.899 330.384C152.035 326.514 154.036 324.948 157.5 325.834C158.228 326.02 158.685 327.014 159.399 327.247C170.501 330.843 182.193 332.627 193.281 336.276C194.688 336.74 195.54 338.624 196.777 339.447C197.264 339.774 197.341 340.331 197.339 340.987C197.332 341.68 198.045 342.888 197.623 343.467C189.665 354.448 181.399 365.203 173.392 376.146C172.959 376.738 171.485 376.383 170.931 376.888ZM241.451 239.408C254.871 258.143 267.451 277.479 280.972 296.138C281.623 297.032 281.981 298.031 282.428 299.058C282.561 299.367 283.404 300.396 283.216 300.528C282.652 300.926 281.449 301.247 280.873 301.154C279.4 300.916 278.259 299.318 276.827 298.856C263.891 294.694 250.82 290.944 237.896 286.752C229.633 284.074 221.223 281.884 212.907 279.392C208.359 278.031 204.453 275.708 201.673 271.791C193.585 260.392 184.933 249.404 176.749 238.072C175.657 236.563 175.215 234.206 174.192 232.462C176.22 227.367 179.633 223.079 183.456 219.402C184.157 218.726 185.689 218.927 186.767 218.9C187.865 218.87 188.936 219.179 190.004 219.524C203.295 223.82 216.311 228.975 229.608 233.259C234.037 234.684 238.639 235.478 241.451 239.408ZM344.801 140.536C339.931 147.282 335.425 154.32 330.435 160.975C329.612 162.071 327.3 162.448 326.295 163.107C324.736 162.762 323.592 162.051 322.523 161.714C315.309 159.44 308.144 157.027 300.985 154.588C296.477 153.055 291.901 152.998 287.415 154.546C280.264 157.008 273.236 159.839 266.052 162.207C263.252 163.128 260.896 162.592 259.067 160.083C254.168 153.358 249.284 146.624 244.48 139.831C243.571 138.546 244.288 137.571 245.089 136.166C246.019 134.526 245.468 131.93 246.575 130.4C260.792 110.792 276.064 91.9456 290.319 72.3603C291.199 71.151 292.263 70.1349 293.276 69.0243C293.9 68.3363 295.879 67.6576 296.537 68.4003C297.289 69.2483 297.864 70.311 298.528 71.223C313.228 91.4216 327.004 112.284 341.676 132.504C342.561 133.726 343.8 134.655 344.351 136.035C344.732 137 345.241 138.095 345.216 139.192C345.209 139.532 345.021 140.232 344.801 140.536ZM347.964 159.059C347.775 161.643 347.904 163.926 347.699 166.136C347.58 167.416 344.861 169.064 343.617 168.711C341.491 168.107 339.731 166.39 337.653 165.634C336.413 165.182 335.607 163.763 336.152 162.72C338.403 158.415 340.735 154.156 344.071 150.65C344.396 150.302 345.764 150.182 346.421 150.286C346.672 150.326 347.921 151.286 347.951 151.583C348.185 154.156 347.796 156.83 347.964 159.059ZM292.136 254.643L291.744 254.663C291.58 267.495 290.663 280.32 290.42 293.151C290.411 293.646 289.609 293.81 289.044 294.19C288.847 294.32 288.424 294.67 288.155 294.46C287.569 294.007 287.312 293.187 286.84 292.618C286.12 291.748 285.475 290.832 284.812 289.916C272.593 273.115 261.056 255.822 248.843 239.015C247.515 237.183 244.72 236.395 243.42 234.543C242.084 232.642 242.409 230.066 242.407 227.73C242.399 211.867 242.425 196.007 242.459 180.144C242.464 177.647 242.953 175.11 245.327 174.247C248.867 172.959 252.571 172.043 256.183 170.974C257.709 170.522 258.735 172.12 259.831 173.244C260.88 174.323 262.113 175.171 263.001 176.386C271.016 187.368 279.496 198.007 287.631 208.9C290.511 212.755 291.827 217.107 291.767 221.806C291.636 232.758 292.136 243.691 292.136 254.643ZM295.677 410.33C296.341 410.606 297.332 411.146 297.756 411.732C305.76 422.755 314.071 433.56 322.012 444.624C322.428 445.199 322.117 446.627 322.347 447.334C322.036 447.974 321.256 448.558 320.793 449.054C320.297 449.586 319.415 449.164 318.719 449.394C311.183 451.899 304.235 456.191 296.665 458.584C295.627 458.914 294.207 457.782 293.192 457.46C284.92 454.806 276.693 452.034 268.465 449.243C266.933 448.724 265.656 446.942 266.48 445.584C267.067 444.615 267.933 443.782 268.595 442.866C275.477 433.366 283.261 424.524 290.207 415.07C291.308 413.57 292.272 412.026 293.677 410.804C294.059 410.472 295.049 410.07 295.677 410.33ZM294.735 207.448C294.12 207.3 294.244 206.094 293.991 205.878C293.136 205.144 290.855 205.724 290.201 204.83C282.595 194.45 276.068 183.287 268.511 172.879C268.072 172.272 267.829 171.595 267.459 170.936C266.72 169.63 266.728 167.264 268.224 166.752C275.724 164.172 283.327 161.83 290.912 159.524C292.967 158.9 295.42 159.988 297.477 160.615C305.059 162.931 312.643 165.198 320.143 167.78C321.603 168.282 322.732 170.176 321.98 171.408C321.188 172.698 320.597 174.168 319.717 175.39C312.392 185.503 305.392 195.858 297.985 205.911C297.381 206.73 295.504 206.954 294.735 207.448ZM343.98 235.799C330.16 254.73 315.485 273.035 301.673 291.971C301.247 292.559 301.12 293.282 300.461 293.49C299.899 293.666 298.424 293.892 298.315 293.576C297.84 292.179 297.197 290.563 297.188 289.102C297.121 277.759 296.74 266.414 296.74 255.071H297.295C297.295 244.107 297.628 233.144 297.471 222.18C297.392 216.624 299.451 212.094 302.808 207.647C310.324 197.695 317.488 187.47 324.851 177.398C326.18 175.578 328.169 174.443 329.811 172.912C330.521 172.248 331.371 170.299 332.356 170.472C334.568 170.862 336.451 172.846 338.595 173.56C346.548 176.21 346.841 176.574 346.889 185.383C346.961 198.236 348.025 211.086 348.093 223.94C348.117 228.27 346.532 232.3 343.98 235.799ZM355.708 232.7C370.437 227.859 385.271 223.323 400.021 218.546C402.849 217.63 404.704 219.455 406.464 221.843C407.811 223.671 409.568 225.187 410.868 227.048C414.245 231.887 414.869 233.054 411.179 238.186C403.223 249.246 395.245 260.286 387.388 271.415C384.624 275.324 381.049 278.384 376.496 279.84C354.521 286.862 332.44 293.539 309.865 300.894C309.42 300.995 308.157 300.64 307.048 300.811C306.744 300.86 306.408 300.799 306.329 300.574C306.1 299.946 306.531 299.63 306.768 299.126C307.407 297.771 306.615 295.552 307.499 294.335C320.163 276.875 333.885 260.182 346.569 242.732C347.681 241.202 348.841 239.707 349.953 238.176C351.568 235.951 353.128 233.55 355.708 232.7ZM352.835 202.672C352.835 195.863 353.453 189.072 353.521 182.266C353.54 180.212 355.097 179.259 357.259 179.695C357.631 179.77 357.74 180.568 358.095 180.682C364.933 182.88 372.337 183.31 379.181 185.482C381.436 186.195 382.673 188.515 384.032 190.394C388.681 196.834 393.267 203.31 397.841 209.802C398.839 211.215 399.044 213.286 397.617 214.027C396.947 214.374 396.124 214.608 395.421 214.836C383.543 218.672 371.319 221.422 359.417 225.182C358.363 225.512 357.407 226.108 356.392 225.815C355.436 225.536 353.856 225.171 353.481 224.291C352.911 222.95 352.511 221.218 352.491 219.731C352.409 214.054 352.048 208.327 352.048 202.648C352.052 202.538 352.832 202.783 352.835 202.672ZM412.503 219.48C412.117 218.875 411.563 217.876 411.565 217.18C411.568 216.518 411.915 214.659 412.392 214.384C417.264 211.571 423.175 210.998 428.324 209.387C428.805 209.816 429.615 210.298 429.752 210.61C429.891 210.919 428.956 211.164 428.784 211.424C426.94 214.218 425.513 217.268 423.517 219.948C418.637 226.507 417.121 226.78 412.503 219.48ZM437.16 276.855C437.16 279.88 436.587 282.912 436.496 285.936C436.324 291.592 435.243 291.795 430.096 290.202C425.761 288.862 420.879 289.264 416.56 287.867C410.087 285.775 404.004 282.482 397.545 280.331C389.873 277.772 389.803 277.564 394.447 271.091C400.617 262.483 405.865 253.206 412.127 244.664C413.453 242.852 415.38 241.427 416.905 239.768C417.6 239.01 418.951 239.915 419.723 240.683C420.257 241.215 421.179 241.312 421.616 241.911C425.847 247.715 430.639 253.116 434.837 258.948C436.197 260.836 437.239 263.17 437.241 265.518C437.251 269.299 437.652 273.064 437.652 276.846L437.16 276.855ZM437.171 310.036C437.139 310.486 436.16 312.691 435.879 314.934C435.679 316.519 435.18 317.894 433.792 318.622C432.8 319.143 431.581 319.19 430.511 319.542C417.597 323.775 404.665 327.955 391.767 332.235C387.319 333.716 383.307 333.266 378.827 331.798C355.861 324.282 332.308 318.56 309.368 310.974C308.855 310.804 309.221 308.891 308.953 308.246C308.873 308.056 309.128 308.122 309.363 307.884C309.617 307.626 309.347 306.434 309.687 306.295C311.083 305.716 312.625 305.402 314.06 304.94C334.183 298.452 354.659 293.06 374.784 286.584C375.863 286.238 376.789 285.395 377.857 285.012C382.272 283.423 386.668 282.706 391.16 284.202C404.415 288.618 417.741 292.795 431.047 297.055C436.467 298.788 437.517 301.446 437.728 305.898C437.764 306.654 437.171 307.462 437.171 310.036ZM428.865 404.967C429.203 405.452 429.865 406.582 429.552 406.991C429.247 407.386 427.901 407.755 427.24 407.692C426.513 407.624 425.883 407.688 425.172 407.463C425.045 407.463 425.063 407.15 424.943 407.114C421.119 405.676 417.573 403.43 413.765 401.954C412.389 401.419 412.193 400.178 413.005 398.803C414.335 396.559 414.808 393.367 417.144 391.99C417.688 391.667 419.101 391.923 419.712 392.148C420.36 392.388 420.212 393.795 420.648 394.378C423.317 397.966 426.304 401.304 428.865 404.967ZM429.469 366.666C426.815 370.33 422.961 373.108 420.171 376.671C419.244 377.854 417.929 377.728 416.883 376.592C416.624 376.316 415.352 376.856 415.133 376.559C407.155 365.555 399.453 354.346 391.511 343.315C391.096 342.735 391.853 341.727 391.868 341.031C391.879 340.372 391.729 339.811 392.175 339.302C392.649 338.759 392.988 337.716 393.675 337.492C406.229 333.394 418.728 329.115 431.307 325.107C433.773 324.322 437.281 326.386 437.42 328.791C437.655 332.934 437.189 337.144 437.248 338.707C437.033 357.214 438.648 353.999 429.469 366.666ZM436.227 198.372C436.08 199.343 434.777 199.902 433.968 200.599C433.133 201.319 432.376 202.126 431.324 202.519C429.2 203.316 426.996 203.838 424.824 204.483C402.348 211.14 410.235 214.18 395.677 195.031C394.535 193.523 392.895 192.39 391.781 190.859C384.587 180.978 385.971 182.739 375.965 179.028C371.003 177.19 365.884 175.758 360.857 174.091C359.427 173.616 358.401 172.276 357.031 171.644C355.213 170.807 352.561 170.431 352.537 168.34C352.441 160.026 353.673 151.698 353.743 143.38C353.76 141.406 354.612 140.182 356.497 139.366C358.577 138.464 360.305 136.566 362.464 135.864C384.409 128.744 406.471 121.976 428.432 114.902C429.856 114.443 431.605 115.282 433.079 114.995C434.345 114.747 435.841 115.446 435.959 116.719C436.165 118.974 437.127 121.204 437.143 123.464C437.199 132.171 437.373 140.879 437.373 149.587C437.377 152.236 437.784 154.887 437.784 157.538L437.215 157.536C437.215 168.514 436.039 179.487 435.987 190.463C435.973 193.102 436.621 195.77 436.227 198.372ZM241.243 157.59C241.427 156.106 241.472 153.422 241.849 150.852C241.873 150.714 243.256 150.331 243.613 150.347C243.961 150.366 243.811 151.291 243.997 151.534C246.705 155.1 249.771 158.387 252.368 162.034C253.861 164.132 253.26 166.524 250.575 167.344C249.147 167.782 247.685 168.338 246.217 168.631C243.881 169.096 241.215 167.572 241.075 165.516C240.929 163.276 241.409 160.963 241.243 157.59ZM347.932 458.734C347.789 461.68 348.068 463.67 347.813 465.523C347.735 466.111 346.52 466.844 345.98 467.284C345.805 467.426 345.501 466.468 345.289 466.251C341.617 462.47 338.149 458.755 336.041 453.883C335.805 453.334 335.468 452.011 335.901 451.646C338.256 449.678 341.316 448.274 344.364 448.251C345.167 448.248 347.528 449.862 347.673 450.68C348.199 453.615 347.759 456.8 347.932 458.734ZM526.567 148.262C526.624 171.74 527.808 195.224 527.732 218.702C527.708 226.368 525.157 228.012 518.116 225.752C495.415 218.472 473.095 210.026 450.417 202.679C449.697 202.447 448.876 202.538 448.16 202.296C444.561 201.084 441.901 199.15 442.024 195.094C442.104 192.447 441.769 189.806 441.769 187.156C441.759 176.931 441.353 166.706 441.353 156.48H441.925C441.925 145.499 442.125 134.515 442.168 123.534C442.175 121.27 442.82 119.022 443.008 116.764C443.115 115.522 444.839 114.176 446.065 114.368C447.547 114.595 448.764 115.572 450.183 116.03C472.512 123.232 495.408 128.674 517.728 135.908C518.451 136.143 518.757 137.588 519.469 137.848C526.125 140.276 526.549 140.758 526.567 148.262ZM532.549 151.734C532.587 151.464 533.52 150.926 533.809 150.798C534.111 150.666 534.295 151.49 534.493 151.651C535.36 152.352 536.504 152.65 537.151 153.535C550.965 172.478 565.303 191.038 579.147 209.96C581.484 213.155 582.803 216.792 582.775 220.731C582.684 232.835 583.152 244.946 583.152 257.05L582.429 257.043C582.429 269.518 582.205 281.991 582.209 294.467C582.209 295.423 581.551 295.727 580.616 295.698C580.276 295.688 579.991 295.623 579.769 295.383C578.751 294.28 578.4 292.704 577.519 291.491C564.613 273.758 550.287 257.063 537.267 239.411C533.756 234.654 533.081 229.295 533.149 223.26C533.407 200.948 533.267 178.627 533.292 156.312C533.293 154.816 532.349 153.22 532.549 151.734ZM581.792 202.844C548.671 157.158 514.311 112.363 481.125 66.719C480.012 65.1883 479.485 63.2056 478.301 61.7309C476.865 59.9363 474.784 59.0216 472.525 58.2736C468.573 56.9643 465.061 54.3123 461.101 53.0256C410.709 36.6416 359.709 22.143 309.313 5.7803C305.712 4.60963 302.601 1.89363 298.979 0.80296C296.005 -0.0970399 292.563 -0.323681 289.592 0.553652C286.327 1.51499 283.371 3.51895 280.132 4.57229C235.859 18.967 191.647 33.5536 147.377 47.9523C138.737 50.7643 129.988 53.2336 121.3 55.8803C115.671 57.5936 110.164 59.8803 107.251 65.2709C106.893 65.9323 107.076 66.8896 106.628 67.503C73.9041 112.544 40.7081 157.243 7.96408 202.271C-1.04392 214.66 0.292058 213.031 0.282724 227.63C0.232058 281.796 0.044052 335.966 0.052052 390.13C0.052052 393.164 -0.017255 396.194 0.00407832 399.226C0.0240783 401.959 1.51339 404.33 2.96672 406.607C3.98272 408.202 4.74275 409.98 5.85475 411.51C39.2374 457.482 72.6067 503.459 106.041 549.391C113.2 559.222 111.82 559.124 123.733 562.992C175.573 579.831 227.977 594.923 279.827 611.726C296.495 617.128 292.613 618.342 309.212 613.011C334.076 605.02 358.937 597.015 383.78 588.947C411.497 579.943 438.855 569.844 466.515 560.659C475.371 557.716 474.589 559.672 481.511 550.095C482.396 548.866 484.205 548.307 485.095 547.082C514.04 507.25 542.635 467.168 571.573 427.334C576.027 421.206 579.835 414.607 584.327 408.507C586.425 405.662 587.295 402.818 587.236 399.258C587.185 396.23 586.856 393.188 586.856 390.158C586.859 362.887 587.423 335.612 587.423 308.338C587.421 280.687 588.089 253.034 588.035 225.383C588.009 211.52 589.603 213.614 581.792 202.844Z" fill="#D9D9D9" stroke="white" stroke-width="2" mask="url(#path-1-inside-1_1_34)"/>
</svg>
