<!--?xml version="1.0" encoding="utf-8"?-->
<svg version="1.1" x="0px" y="0px" id="iconz0462812830026262715144100" viewBox="0 0 512 512" xmlns="http://www.w3.org/2000/svg" style="enable-background:new 0 0 512 512;" xml:space="preserve"><style type="text/css">
.baseF{fill:#FFFFFF}
.baseB{fill:#232256}
.eyeF{fill:#FFFFFF}
.eyeB{fill:#232256}
.eyeT{fill:#BDC7D6}
.hairF{fill:#FFFFFF}
.hairB{fill:#232256}
.hairU{fill:#5E7AA5}
.hairT{fill:#BDC7D6}
.noseF{fill:#FFFFFF}
.noseB{fill:#232256}
.noseU{fill:#5E7AA5}
.mayugeB{fill:#232256}
.mayugeU{fill:#5E7AA5}
.mayugeT{fill:#BDC7D6}
.mayugeF{fill:#FFFFFF}
.mouthF{fill:#FFFFFF}
.mouthB{fill:#232256}
.mouthT{fill:#BDC7D6}
.mouthU{fill:#5E7AA5}
.hatF{fill:#FFFFFF}
.hatB{fill:#232256}
.hatU{fill:#5E7AA5}
.hatT{fill:#BDC7D6}
.higeU{fill:#5E7AA5}
.higeB{fill:#232256}
.higeF{fill:#FFFFFF}
.bodyF{fill:#FFFFFF}
.bodyB{fill:#232256}
.bodyU{fill:#5E7AA5}
.bodyT{fill:#BDC7D6}
.bodyS{fill:#8DA6C9}
.bodyH{fill:#FFFFFF}
.glassF{fill:#FFFFFF}
.glassB{fill:#232256}
.glassT{fill:#BDC7D6}
.glassU{fill:#5E7AA5}
.kirakiraF{fill:#FFFFFF}
.kirakiraB{fill:#232256}
.kirakiraU{fill:#5E7AA5}
.kirakiraT{fill:#BDC7D6}
.kirakiraH{fill:#FFFFFF}
.backF{fill:#FFFFFF}
.backB{fill:#232256}
.backU{fill:#5E7AA5}
.backS{fill:#8DA6C9}
.backA{fill:#FFE38B}
.backG{fill:#EEEEEF}
.backC{fill:#19DB9F}
.backD{fill:#DBBCA1}
</style>
<g class="icosvg">
<g>
	<path class="bodyF" d="M411.039,426.354c-35.173-33.731-76.795-50.156-76.795-50.156c-18.129-9.741-20.552-10.697-77.135-11.47   c-56.583,0.773-59.006,1.73-77.135,11.47c-71.354,31.958-134.24,84.018-129.764,200.789c-0.002,31.837-0.002,73.971-0.002,73.971   H464.01C463.441,575.552,474.438,480.9,411.039,426.354z"></path>
	<path class="bodyU" d="M353.217,650.958c-0.344-40.551,0.248-161.498-0.001-218.637c0.913-38.867-8.445-73.384-59.015-73.127   c0,0-76.392,0-76.392,0c-50.585-0.253-59.96,34.255-59.039,73.128c-0.231,56.6,0.166,178.793,0,218.636"></path>
	<path class="bodyH" d="M353.217,427.04v5.28c-56.624,28.678-137.81,28.677-194.447,0c-0.915-38.872,8.45-73.384,59.039-73.129   c0,0,76.392,0,76.392,0C342.25,359.191,353.217,389.576,353.217,427.04z"></path>
	<path class="bodyB" d="M468.177,650.958c0,0,0-47.674,0-79.512c-0.002-37.185-3.752-66.338-12.521-91.031   c-17.447-58.077-89.522-102.496-118.556-113.878c-2.447-1.972-5.122-3.789-8.138-5.332c-8.952-4.583-30.537-7.289-34.761-7.289   c0,0-38.021-0.005-38.208-0.008c-0.188,0.003-38.184,0.008-38.184,0.008c-17.254,0.178-31.226,3.248-42.818,12.586   c-29.645,11.646-101.222,56.023-118.646,113.914c-8.77,24.692-12.52,53.844-12.523,91.03c0,31.837,0,79.511,0,79.512   c0.108,6.869,10.424,6.993,10.554,0c1.976-70.106-13.679-168.247,51.347-226.336c18.936-17.582,36.397-29.574,54.995-39.382   c-6.484,14.253-7.385,31.003-7.225,47.081c0,30.361,0,62.015,0,85.488c0,24.839,0,133.148,0,133.148   c0.132,6.793,10.389,7.065,10.554,0c0.346-38.706-0.207-150.575-0.03-210.382c55.44,24.554,128.514,24.555,183.947,0.004   c0.139,59.458-0.156,172.364-0.022,210.378c0.015,6.753,10.458,7.068,10.553,0h-0.001c-0.401-40.57,0.289-161.485-0.001-218.637   c0.321-15.936-0.925-33.174-7.434-47.42c32.766,17.851,81.363,54.55,94.654,99.049c8.205,23.079,11.917,50.998,11.914,87.496   c0,31.837,0,79.511,0,79.512c0.056,6.817,10.445,7.025,10.554,0H468.177z M163.976,429.088c-0.316-22.479,3.587-41.89,16.629-53.42   c0.161-0.073,0.321-0.145,0.484-0.217c7.642-4.054,11.72-6.428,19.478-8.089c9.06-1.915,23.571-2.475,54.99-2.892   c0.293,0,0.586,0,0.88,0c27.909,0.376,42.49,0.844,51.736,2.302c9.704,1.552,13.888,3.974,22.732,8.677   c0.13,0.048,2.21,1.753,2.382,1.925c0.462,0.454,0.892,0.945,1.332,1.425c3.456,3.848,6.161,8.382,8.205,13.506   c0.805,2.101,1.53,4.289,2.1,6.652c2.368,8.68,3.046,19.726,3.032,30.155C293.887,455.145,218.045,455.134,163.976,429.088z"></path>
</g>

<g>
	<path class="baseF" d="M370.827,211.355h-1.087c-4.5-69.281-37.913-124.791-113.738-124.791s-109.237,55.509-113.737,124.791h-1.088
		c-14.836-8.77-36.375,8.077-32.986,28.425c7.12,42.713,9.942,53.302,22.627,59.714c6.478,3.272,12.413,3.389,12.413,3.389h7.903
		c4.228,26.864,15.788,46.294,22.941,63.427c9.731,23.287,53.016,45.431,81.928,45.431s72.197-22.144,81.928-45.431
		c7.153-17.133,18.712-36.562,22.941-63.427h7.903c0,0,5.934-0.117,12.413-3.389c12.689-6.413,15.506-17.002,22.627-59.714
		C407.202,219.431,385.662,202.584,370.827,211.355z"></path>
	<path class="baseB" d="M400.194,213.068c-5.491-5.662-12.816-9.342-20.597-9.373c-1.734-0.002-3.483,0.225-5.213,0.633
		c-2.782-29.967-10.992-57.396-26.259-78.888c-9.609-13.516-22.029-24.635-37.387-32.295c-15.356-7.669-33.588-11.864-54.736-11.859
		c-21.15-0.005-39.382,4.191-54.738,11.859c-23.06,11.496-39.403,30.75-49.784,54.244c-7.547,17.062-12.016,36.394-13.922,56.927
		c-1.711-0.398-3.443-0.623-5.159-0.621c-7.786,0.03-15.11,3.71-20.604,9.373c-5.482,5.674-9.237,13.563-9.244,22.423
		c0,1.692,0.138,3.42,0.436,5.168l-0.002-0.012c3.584,21.41,6.03,34.84,9.466,44.398c1.727,4.772,3.764,8.644,6.443,11.82
		c2.67,3.183,5.925,5.522,9.541,7.338c7.608,3.813,14.234,3.928,14.693,3.956c1.427,0.028,2.723-0.525,3.691-1.427
		c3.117,9.816,6.197,19.28,9.262,28.118c6.352,18.293,12.586,33.977,19.17,45.328c1.357,2.292,3.209,4.167,5.477,6.127
		c3.97,3.38,9.312,6.837,15.497,10.28c9.27,5.147,20.386,10.179,31.048,13.983c5.332,1.901,10.547,3.492,15.394,4.627
		c4.854,1.127,9.316,1.816,13.334,1.823c6.098-0.021,13.324-1.575,21.216-3.961c11.796-3.598,24.886-9.162,35.859-15.005
		c5.487-2.925,10.434-5.913,14.468-8.834c4.036-2.977,7.163-5.651,9.204-9.04c6.584-11.351,12.818-27.035,19.17-45.326
		c3.066-8.841,6.148-18.302,9.265-28.12c0.97,0.905,2.269,1.458,3.696,1.43c0.459-0.03,7.078-0.145,14.686-3.959
		c3.616-1.816,6.872-4.155,9.541-7.338c4.027-4.8,6.57-11.009,8.869-19.779c2.295-8.805,4.362-20.386,7.041-36.438l0.005-0.028
		c0.279-1.727,0.415-3.441,0.415-5.128C409.428,226.633,405.676,218.742,400.194,213.068z M398.602,238.938
		c-3.534,21.284-6.056,34.498-8.979,42.513c-1.453,4.017-2.946,6.663-4.587,8.611c-1.65,1.943-3.504,3.33-6.232,4.72
		c-2.679,1.355-5.32,2.081-7.247,2.449c-0.961,0.183-1.741,0.279-2.252,0.326l-0.555,0.045l-0.082,0.005v-0.002l-0.021,0.002v0.002
		c-0.227,0.005-0.42,0.108-0.638,0.141c2.409-7.69,4.838-15.499,7.308-23.449c0.862-2.784-0.691-5.742-3.473-6.605
		c-2.784-0.865-5.742,0.689-6.605,3.473l-0.002-0.002c-6.661,21.438-13.043,42.211-19.289,60.225
		c-6.234,18.005-12.387,33.288-18.323,43.481c-0.312,0.577-1.446,1.922-3.206,3.403c-3.082,2.641-7.987,5.876-13.77,9.082
		c-8.686,4.828-19.399,9.68-29.466,13.268c-5.032,1.793-9.905,3.274-14.25,4.289c-4.338,1.02-8.17,1.554-10.931,1.547
		c-4.228,0.021-10.854-1.268-18.143-3.504c-10.973-3.335-23.634-8.707-33.97-14.222c-5.168-2.752-9.766-5.548-13.24-8.065
		c-3.471-2.463-5.81-4.884-6.272-5.798c-5.937-10.193-12.087-25.477-18.321-43.481c-6.246-18.014-12.628-38.787-19.291-60.225
		c-0.867-2.784-3.825-4.338-6.607-3.471c-2.784,0.865-4.338,3.823-3.471,6.607c2.47,7.95,4.898,15.759,7.308,23.449
		c-0.218-0.033-0.41-0.136-0.635-0.141v-0.005l-0.021-0.002l0,0c-0.302,0.002-5.17-0.288-10.141-2.822
		c-2.728-1.39-4.582-2.777-6.232-4.72c-2.454-2.885-4.61-7.502-6.727-15.645c-2.121-8.107-4.181-19.526-6.844-35.508l-0.002-0.012
		c-0.195-1.158-0.286-2.29-0.286-3.408c-0.007-5.801,2.494-11.17,6.279-15.089c3.776-3.933,8.737-6.183,13.015-6.152
		c1.535,0.005,2.979,0.373,4.39,0.93c-0.206,4.263-0.342,8.557-0.342,12.898c0,2.913,2.362,5.278,5.278,5.278
		c2.913,0,5.278-2.365,5.278-5.278h-0.002c-0.019-37.709,8.02-72.047,25.472-96.518c8.73-12.255,19.765-22.106,33.504-28.971
		c13.744-6.855,30.255-10.744,50.025-10.748c19.767,0.005,36.279,3.893,50.023,10.748c20.585,10.294,35.191,27.321,44.848,49.076
		c9.633,21.731,14.135,48.145,14.128,76.413c0,2.913,2.363,5.278,5.278,5.278c2.913,0,5.278-2.365,5.278-5.278
		c-0.002-4.341-0.145-8.632-0.352-12.898c1.411-0.558,2.855-0.926,4.392-0.93c4.275-0.03,9.232,2.22,13.005,6.15
		c3.785,3.921,6.286,9.288,6.279,15.091C398.881,236.613,398.792,237.759,398.602,238.938z"></path>
</g>


<g>
	<path class="higeB" d="M248.657,391.868c-1.043-0.052-1.77,0.811-2.395,2.747c-0.277,0.825-0.642,1.627-1.095,2.372
		c-1.066,1.734-1.303,2.902-0.595,3.67c0.633,0.712,2.255,0.539,3.71-1.8c0.588-0.97,1.064-2.011,1.425-3.089
		C250.537,393.148,249.609,391.891,248.657,391.868z"></path>
	<path class="higeB" d="M257.114,389.988c-0.281-1.448-1.198-1.908-2.184-1.716c-0.984,0.188-1.664,0.961-1.383,2.409l0.354,1.828
		c0.279,1.444,1.207,1.959,2.194,1.767c0.984-0.188,1.652-1.013,1.373-2.461L257.114,389.988z"></path>
	<path class="higeB" d="M254.957,400.263c-1.012,0.089-1.723,0.886-1.734,2.597c-0.007,0.727-0.042,1.453-0.108,2.18
		c-0.157,1.706,0.462,2.634,1.458,2.822c0.973,0.188,1.98-0.548,2.163-2.503c0.073-0.816,0.113-1.636,0.122-2.456
		C256.868,400.938,255.944,400.179,254.957,400.263z"></path>
	<path class="higeB" d="M237.63,392.191c-0.933-0.445-2.016,0.155-3.335,2.081c-0.567,0.816-1.188,1.594-1.861,2.325
		c-1.587,1.706-2.002,2.953-1.371,3.769c0.588,0.773,2.166,0.703,4.052-1.317c0.78-0.848,1.5-1.753,2.161-2.7
		C238.835,394.066,238.511,392.599,237.63,392.191z"></path>
	<path class="higeB" d="M222.576,389.304l-1.758,1.317c-1.387,1.036-1.542,2.17-0.942,2.972c0.602,0.802,1.73,0.975,3.12-0.066
		l1.755-1.312c1.39-1.036,1.493-2.133,0.893-2.934C225.042,388.479,223.964,388.268,222.576,389.304z"></path>
	<path class="higeB" d="M243.353,383.055c-0.996-0.248-1.88,0.216-2.522,1.608c-0.279,0.595-0.602,1.172-0.973,1.716
		c-0.865,1.261-0.848,2.302-0.131,3.033c0.68,0.703,1.988,0.67,3.145-1.003c0.473-0.698,0.891-1.439,1.249-2.198
		C244.966,384.354,244.3,383.285,243.353,383.055z"></path>
	<path class="higeB" d="M251.566,377.458c-1.027-0.005-1.772,0.539-2.07,1.758c-0.134,0.525-0.316,1.041-0.551,1.528
		c-0.544,1.13-0.347,2.062,0.438,2.723c0.741,0.633,2.011,0.53,2.845-1.167c0.335-0.703,0.598-1.434,0.79-2.189
		C253.453,378.274,252.539,377.449,251.566,377.458z"></path>
	<path class="higeB" d="M211.493,383.318c-0.504,0.464-1.055,0.877-1.643,1.223c-1.369,0.802-1.894,1.706-1.615,2.7
		c0.246,0.933,1.526,1.542,3.476,0.422c0.799-0.473,1.547-1.031,2.231-1.659c1.638-1.542,1.38-2.878,0.562-3.394
		C213.637,382.048,212.655,382.24,211.493,383.318z"></path>
	<path class="higeB" d="M233.981,387.326c0.523-0.567,0.97-1.191,1.341-1.866c0.874-1.664,0.115-2.667-0.837-2.836
		c-1.01-0.202-1.826,0.122-2.344,1.083l-0.837,1.158c-0.741,0.797-0.825,1.702-0.326,2.597
		C231.438,388.315,232.682,388.685,233.981,387.326z"></path>
	<path class="higeB" d="M201.297,377.651l-1.451,1.35c-1.148,1.069-1.123,2.156-0.438,2.892c0.682,0.736,1.767,0.834,2.916-0.234
		l1.451-1.35c1.148-1.069,1.08-2.119,0.398-2.855C203.489,376.723,202.446,376.582,201.297,377.651z"></path>
	<path class="higeB" d="M194.28,371.754l-2.173,0.788c-1.718,0.619-2.234,1.673-1.894,2.616c0.342,0.947,1.411,1.425,3.131,0.802
		l2.173-0.788c1.718-0.623,2.173-1.65,1.83-2.592C197.008,371.632,196,371.135,194.28,371.754z"></path>
	<path class="higeB" d="M223.525,379.413l-1.383,1.073c-1.102,0.853-1.05,1.842-0.363,2.573c0.687,0.731,1.695,0.984,2.66,0.239
		l1.23-0.952c0.963-0.75,0.938-1.763,0.403-2.606C225.536,378.893,224.632,378.56,223.525,379.413z"></path>
	<path class="higeB" d="M211.893,377.069l1.317-0.769c1.043-0.609,1.076-1.57,0.57-2.438c-0.506-0.867-1.362-1.312-2.402-0.703
		l-1.317,0.773c-1.043,0.609-1.113,1.589-0.607,2.456C209.96,377.257,210.853,377.679,211.893,377.069z"></path>
	<path class="higeB" d="M269.646,394.615c-0.628-1.936-1.352-2.798-2.395-2.747c-0.952,0.023-1.88,1.28-1.05,3.9
		c0.361,1.078,0.837,2.119,1.425,3.089c1.455,2.339,3.077,2.513,3.71,1.8c0.705-0.769,0.469-1.936-0.595-3.67
		C270.288,396.241,269.922,395.44,269.646,394.615z"></path>
	<path class="higeB" d="M262.989,381.424c-1.003,0.066-1.772,0.745-1.671,2.217l0.127,1.861c0.098,1.467,0.956,2.095,1.957,2.025
		c1.001-0.066,1.767-0.802,1.666-2.273l-0.124-1.856C264.843,381.926,263.99,381.354,262.989,381.424z"></path>
	<path class="higeB" d="M261.764,397.919c-0.771-0.033-1.47,0.591-1.397,2.119c0.033,0.638,0.091,1.28,0.173,1.913
		c0.206,1.519,1.015,2.058,1.767,1.88c0.771-0.178,1.221-0.919,1.045-2.245c-0.075-0.562-0.124-1.13-0.155-1.697
		C263.135,398.557,262.553,397.957,261.764,397.919z"></path>
	<path class="higeB" d="M281.613,394.273c-1.32-1.927-2.405-2.527-3.337-2.081c-0.879,0.408-1.202,1.875,0.356,4.158
		c0.659,0.947,1.38,1.852,2.161,2.7c1.887,2.02,3.464,2.091,4.052,1.317c0.63-0.816,0.213-2.062-1.373-3.769
		C282.801,395.866,282.18,395.088,281.613,394.273z"></path>
	<path class="higeB" d="M295.087,390.621l-1.755-1.317c-1.39-1.036-2.466-0.825-3.068-0.023c-0.6,0.802-0.497,1.898,0.893,2.934
		l1.755,1.312c1.388,1.041,2.517,0.867,3.117,0.066C296.632,392.791,296.477,391.657,295.087,390.621z"></path>
	<path class="higeB" d="M275.074,384.663c-0.64-1.392-1.523-1.856-2.52-1.608c-0.949,0.23-1.612,1.298-0.769,3.155
		c0.359,0.759,0.776,1.5,1.247,2.198c1.158,1.673,2.466,1.706,3.148,1.003c0.717-0.731,0.731-1.772-0.134-3.033
		C275.678,385.835,275.353,385.259,275.074,384.663z"></path>
	<path class="higeB" d="M306.058,384.541c-0.588-0.347-1.141-0.759-1.645-1.223c-1.163-1.078-2.142-1.27-3.009-0.708
		c-0.818,0.516-1.076,1.852,0.56,3.394c0.687,0.628,1.432,1.186,2.231,1.659c1.952,1.12,3.232,0.511,3.478-0.422
		C307.952,386.248,307.427,385.343,306.058,384.541z"></path>
	<path class="higeB" d="M283.767,383.707c-0.52-0.961-1.336-1.284-2.346-1.083c-0.949,0.169-1.709,1.172-0.834,2.836
		c0.37,0.675,0.818,1.298,1.341,1.866c1.296,1.359,2.543,0.989,3,0.136c0.502-0.895,0.417-1.8-0.323-2.597L283.767,383.707z"></path>
	<path class="higeB" d="M314.608,377.651c-1.148-1.069-2.189-0.928-2.873-0.197c-0.684,0.736-0.75,1.786,0.398,2.855l1.451,1.35
		c1.148,1.069,2.231,0.97,2.916,0.234c0.684-0.736,0.708-1.823-0.441-2.892L314.608,377.651z"></path>
	<path class="higeB" d="M323.798,372.541l-2.173-0.788c-1.718-0.619-2.726-0.122-3.068,0.825c-0.34,0.942,0.115,1.969,1.833,2.592
		l2.173,0.788c1.718,0.623,2.789,0.145,3.131-0.802C326.034,374.215,325.518,373.16,323.798,372.541z"></path>
	<path class="higeB" d="M291.466,383.299c0.968,0.745,1.973,0.492,2.662-0.239c0.687-0.731,0.738-1.72-0.363-2.573l-1.385-1.073
		c-1.104-0.853-2.009-0.52-2.545,0.328c-0.537,0.844-0.562,1.856,0.401,2.606L291.466,383.299z"></path>
	<path class="higeB" d="M302.695,376.301l1.317,0.769c1.043,0.609,1.934,0.188,2.44-0.68s0.436-1.847-0.605-2.456l-1.317-0.773
		c-1.043-0.609-1.896-0.164-2.402,0.703S301.654,375.691,302.695,376.301z"></path>
	<path class="higeB" d="M212.003,331.024c-0.684,0.886-1.345,1.791-1.978,2.714c-1.498,2.212-1.432,3.675-0.647,4.125
		c0.809,0.464,1.997-0.183,3.396-2.245c0.595-0.867,1.216-1.72,1.863-2.555c1.533-1.969,1.72-3.23,1.027-3.853
		C214.989,328.605,213.646,328.919,212.003,331.024z"></path>
	<path class="higeB" d="M222.471,337.849c1.024,0.094,1.842-0.792,2.405-2.756c0.244-0.839,0.555-1.655,0.923-2.447
		c0.879-1.842,0.811-2.986-0.026-3.586c-0.78-0.577-2.168-0.234-3.267,2.053c-0.445,0.952-0.823,1.941-1.118,2.953
		C220.699,336.509,221.5,337.769,222.471,337.849z"></path>
	<path class="higeB" d="M232.263,337.437c1.027,0.07,1.833-0.975,2.346-3.258c0.22-0.975,0.509-1.927,0.851-2.864
		c0.823-2.189,0.68-3.427-0.223-3.928c-0.846-0.478-2.217,0.103-3.188,2.677c-0.396,1.078-0.727,2.175-0.982,3.295
		C230.472,336.044,231.29,337.38,232.263,337.437z"></path>
	<path class="higeB" d="M242.318,335.848c1.024,0.033,1.802-0.881,2.163-2.855c0.155-0.844,0.366-1.673,0.626-2.489
		c0.619-1.913,0.333-3.019-0.588-3.469c-0.877-0.436-2.133,0.089-2.878,2.372c-0.302,0.956-0.548,1.927-0.731,2.911
		C240.485,334.68,241.338,335.824,242.318,335.848z"></path>
	<path class="higeB" d="M254.179,335.463c1.003,0,1.816-0.891,1.816-2.817v-2.438c0-1.927-0.813-2.747-1.816-2.747
		c-1.003,0-1.816,0.82-1.816,2.747v2.438C252.363,334.573,253.176,335.463,254.179,335.463z"></path>
	<path class="higeB" d="M265.654,330.466c-0.375-1.72-1.46-2.119-2.379-1.767c-0.954,0.361-1.465,1.177-1.179,2.508
		c0.12,0.572,0.206,1.153,0.255,1.734c0.105,1.355,0.827,2.048,1.842,2.123c0.982,0.075,1.91-0.675,1.777-2.433
		C265.912,331.905,265.804,331.179,265.654,330.466z"></path>
	<path class="higeB" d="M271.971,332.468c0.192,1.542,0.759,2.395,1.777,2.592c0.94,0.197,2.093-0.741,1.823-3.075
		c-0.127-0.961-0.373-1.898-0.729-2.798c-0.902-2.166-2.32-2.358-3.047-1.739c-0.804,0.661-0.916,1.636-0.333,3.075
		C271.708,331.146,271.884,331.802,271.971,332.468z"></path>
	<path class="higeB" d="M283.078,327.059c-0.809,0.67-0.741,1.786,0.012,3.684c0.316,0.82,0.53,1.678,0.623,2.555
		c0.204,2.03,0.645,3.131,1.666,3.366c0.914,0.239,2.21-0.895,1.945-3.769c-0.129-1.186-0.415-2.344-0.841-3.455
		C285.396,326.768,283.783,326.435,283.078,327.059z"></path>
	<path class="higeB" d="M295.79,330.265c-0.771,0.698-0.905,1.617-0.352,2.85c0.237,0.539,0.408,1.106,0.502,1.688
		c0.209,1.336,0.82,2.086,1.84,2.259c0.945,0.178,2.058-0.703,1.744-2.855c-0.143-0.877-0.398-1.734-0.757-2.55
		C297.855,329.684,296.486,329.608,295.79,330.265z"></path>
</g>


<g>
	<path class="hairB" d="M393.829,194.493c-4.479-33.593-20.747-58.212-20.747-58.212s9.562-3.919,9.562-8.163
		c-32.74-41.555-62.787-47.538-62.787-47.538s7.376-6.185,8.505-11.641c-20.859-5.801-34.662-5.674-47.43,0.825
		c-19.784-17.123-58.39-11.273-83.96-5.939c1.13,5.456,5.412,14.044,5.412,14.044s-37.629,12.026-67.338,40.523
		c0,4.242,9.562,8.161,9.562,8.161s-22.666,26.149-27.145,59.745c2.674-0.436,5.126-1.266,7.397-2.311
		c-1.406,9.415-1.952,18-1.952,24.991c0,5.039,8.398,15.073,8.398,19.102c0,29.435,4.467,27.853,4.467,27.853
		s21.286-12.567,21.82-59.053c0.375-32.726,47.238-64.465,47.238-64.465s-1.205,10.615-3.724,20.041
		c15.164-0.818,30.87-20.041,30.87-20.041s0.279,13.076,2.974,18.844c19.027-5.768,25.952-24.795,25.952-24.795s0,10.91,0,17.852
		c0,6.942,16.695-2.977,30.581-17.852l12.066,19.526c7.854-5.346,3.623-13.575,3.623-13.575s46.863,31.739,47.238,64.465
		c0.534,46.486,21.82,59.053,21.82,59.053s4.467,1.582,4.467-27.853c0-4.029,8.395-14.062,8.395-19.102
		c0-4.786-0.286-10.336-0.923-16.366C389.948,193.501,391.827,194.167,393.829,194.493z"></path>
</g>


<g>
	<path class="mouthB" d="M224.975,354.3c2.307,2.265,5.324,3.259,8.531,3.855c3.226,0.58,6.764,0.709,10.335,0.711
		c3.886-0.001,7.811-0.162,11.259-0.161c4.086-0.005,9.866,0.475,15.433,0.478c3.729-0.006,7.371-0.204,10.592-1.025
		c1.611-0.417,3.134-0.994,4.506-1.89c1.364-0.888,2.587-2.162,3.297-3.795c0.691-1.579-0.028-3.418-1.606-4.11
		c-1.578-0.691-3.418,0.028-4.109,1.607c-0.163,0.359-0.418,0.687-1.007,1.08c-0.865,0.585-2.477,1.137-4.536,1.448
		c-2.056,0.323-4.532,0.445-7.138,0.444c-5.227,0.004-10.924-0.473-15.433-0.478c-3.631,0.001-7.543,0.162-11.259,0.161
		c-3.403,0.002-6.643-0.142-9.226-0.612c-2.602-0.452-4.428-1.286-5.228-2.127c-1.219-1.219-3.194-1.219-4.413,0
		c-1.218,1.219-1.218,3.195,0.001,4.413L224.975,354.3z"></path>
	<path class="mouthB" d="M246.375,371.073c1.453-0.002,4.256,0.205,7.363,0.42c3.122,0.212,6.593,0.429,9.639,0.429
		c1.837-0.001,3.511-0.074,4.958-0.307c0.727-0.121,1.4-0.275,2.063-0.543c0.649-0.275,1.369-0.647,1.964-1.505
		c0.737-1.103,0.44-2.592-0.661-3.329c-1.102-0.737-2.592-0.441-3.329,0.662l0.907,0.605l-0.631-0.902l-0.277,0.296l0.907,0.606
		l-0.631-0.902l0.12,0.171l-0.1-0.184l-0.02,0.013l0.12,0.171l-0.1-0.184c-0.046,0.047-0.738,0.271-1.691,0.368
		c-0.962,0.112-2.212,0.165-3.6,0.165c-2.822,0-6.218-0.207-9.312-0.42c-3.109-0.21-5.873-0.427-7.69-0.429
		c-1.326,0-2.4,1.073-2.4,2.4c0,1.325,1.074,2.4,2.4,2.4V371.073z"></path>
</g>


<g>
	<path class="noseF" d="M257.188,319.018c-4.45,0-10.268-2.395-10.717-6.844c-0.287-2.831,2.885-5.273,5.229-6.67
		c1.549-0.926,2.498-2.571,2.539-4.373C254.239,301.131,265.324,313.086,257.188,319.018z"></path>
	<path class="noseB" d="M250.515,294.972c0.105,1.488,0.142,3.002,0.142,4.352c0,0.607-0.009,1.191-0.018,1.753v-0.028
		c-0.018,0.584-0.304,1.071-0.786,1.364c-1.289,0.773-2.829,1.812-4.218,3.248c-0.691,0.722-1.352,1.554-1.879,2.569
		c-0.523,1.005-0.908,2.229-0.907,3.581l0.05,0.825l3.571-0.462l-3.582,0.361c0.183,1.861,0.964,3.534,2.005,4.828
		c1.576,1.955,3.643,3.19,5.769,4.02c2.139,0.82,4.375,1.228,6.525,1.233c1.986,0,3.598-1.612,3.598-3.598
		c0-1.987-1.611-3.598-3.598-3.598c-1.587,0.012-3.689-0.49-5.104-1.301c-0.714-0.396-1.249-0.851-1.561-1.245l-0.471-1.064
		l-0.012-0.101l-0.791,0.101h0.799l-0.008-0.101l-0.791,0.101h0.799l0.103-0.274c0.155-0.319,0.613-0.888,1.253-1.432
		c0.635-0.551,1.424-1.085,2.136-1.509c2.62-1.561,4.233-4.364,4.297-7.385v-0.028c0.008-0.558,0.018-1.184,0.018-1.859
		c0-1.474-0.036-3.148-0.158-4.861c-0.142-1.985-1.863-3.478-3.846-3.335c-1.984,0.141-3.477,1.861-3.335,3.846L250.515,294.972z"></path>
</g>


<g>
	<g>
		<g>
			<path class="eyeB" d="M227.5,268.065c2.604,0.728,4.164,2.862,3.538,4.661c-0.641,1.863-2.932,2.546-5.237,2.144
				c-3.12-0.634-10.797-2.174-18.012-1.043c-7.225,0.899-13.57,4.069-14.886,4.705c-1.496,0.678-3.145,0.651-3.895-0.479
				c-0.735-1.108,0.025-2.663,1.486-3.741c1.471-1.12,7.552-5.013,15.418-6.743C213.736,265.66,222.74,266.574,227.5,268.065z"></path>
		</g>
		<g>
			<path class="eyeB" d="M284.501,268.065c-2.604,0.728-4.164,2.862-3.538,4.661c0.641,1.863,2.932,2.546,5.237,2.144
				c3.12-0.634,10.797-2.174,18.012-1.043c7.225,0.899,13.57,4.069,14.886,4.705c1.496,0.678,3.145,0.651,3.895-0.479
				c0.735-1.108-0.025-2.663-1.486-3.741c-1.471-1.12-7.552-5.013-15.418-6.743C298.264,265.66,289.261,266.574,284.501,268.065z"></path>
		</g>
	</g>
</g>


<g>
	<g>
		<g>
			<path class="mayugeB" d="M237.126,239.657c0.662,0.166,4.139-7.386,2.985-8.542c-6.988-7.003-30.481-11.052-46.47-7.933
				c1.497-0.292-15.119,2.717-10.37,21.167c0.155,0.601,0.573,0.649,1.121-0.042c2.707-3.412,13.476-7.989,24.607-9.241
				C222.813,233.512,237.179,236.86,237.126,239.657z"></path>
			<path class="mayugeB" d="M242.737,232.36c0.112,3.215-2.306,7.077-2.423,8.17c-0.14,1.069,1.47,0.973,2.681-0.431
				c1.206-1.416,2.006-3.577,2.19-5.238C245.317,233.754,242.746,232.362,242.737,232.36z"></path>
		</g>
		<g>
			<path class="mayugeB" d="M274.33,239.657c-0.662,0.166-4.139-7.386-2.985-8.542c6.988-7.003,30.481-11.052,46.47-7.933
				c-1.497-0.292,15.119,2.717,10.37,21.167c-0.155,0.601-0.573,0.649-1.121-0.042c-2.707-3.412-13.476-7.989-24.607-9.241
				C288.644,233.512,274.278,236.86,274.33,239.657z"></path>
			<path class="mayugeB" d="M268.72,232.36c-0.112,3.215,2.306,7.077,2.423,8.17c0.14,1.069-1.47,0.973-2.681-0.431
				c-1.206-1.416-2.006-3.577-2.19-5.238C266.139,233.754,268.711,232.362,268.72,232.36z"></path>
		</g>
	</g>
</g>


<g>
	<path class="glassB" d="M366.681,250.323c-1.197-0.897-17.408-9.487-52.05-7.478c-26.312,1.525-40.084,4.786-46.582,8.988
		c-4.164,2.693-8.035,2.977-12.049,2.977c-4.013,0-7.885-0.284-12.049-2.977c-6.498-4.202-20.27-7.463-46.582-8.988
		c-34.642-2.008-50.854,6.581-52.05,7.478c-1.197,0.898-1.495,12.564,0,16.453c0,0,3.59,1.197,5.385,4.188
		c1.795,2.991,2.991,18.247,8.675,26.025c4.105,5.618,27.221,11.966,52.947,11.966s29.615-21.239,31.709-30.213
		c2.094-8.974,4.786-9.572,11.965-9.572c7.179,0,9.872,0.598,11.965,9.572c2.094,8.974,5.983,30.213,31.709,30.213
		s48.842-6.348,52.947-11.966c5.684-7.778,6.88-23.034,8.675-26.025c1.795-2.991,5.385-4.188,5.385-4.188
		C368.177,262.887,367.878,251.22,366.681,250.323z M234.96,277.012l-0.233,1.009c-2.587,11.289-6.503,22.311-23.111,22.311
		c-23.389,0-41.725-5.66-44.735-8.611c-2.608-3.657-4.172-10.82-5.209-15.574c-0.86-3.942-3.021-21.499,0.995-22.431
		c5.811-1.348,14.071-2.552,25.041-2.552c3.012,0,6.143,0.093,9.305,0.276c17.47,1.013,28.183,2.03,34.125,4.626
		C237.145,258.689,237.028,268.15,234.96,277.012z M350.328,276.146c-1.038,4.754-2.601,11.918-5.209,15.574
		c-3.01,2.951-21.346,8.611-44.735,8.611c-16.608,0-20.523-11.022-23.111-22.311l-0.233-1.009
		c-2.068-8.861-2.184-18.323,3.821-20.946c5.942-2.595,16.656-3.613,34.125-4.626c3.163-0.183,6.294-0.276,9.305-0.276
		c10.97,0,19.23,1.203,25.041,2.552C353.349,254.647,351.189,272.204,350.328,276.146z"></path>
</g>

</g></svg>